<svg width="577" height="667" viewBox="0 0 577 667" fill="none" xmlns="http://www.w3.org/2000/svg">
<mask id="mask0_2740_12406" style="mask-type:alpha" maskUnits="userSpaceOnUse" x="408" y="101" width="105" height="53">
<path fill-rule="evenodd" clip-rule="evenodd" d="M408.906 101H512.744V153.132H408.906V101Z" fill="white"/>
</mask>
<g mask="url(#mask0_2740_12406)">
<path fill-rule="evenodd" clip-rule="evenodd" d="M512.744 136.787L487.605 146.682L487.601 146.679C483.45 136.858 483.052 126.566 460.241 127.066C442.335 127.455 437.732 144.327 437.773 153.132L408.906 131.236L477.78 101L512.744 136.787Z" fill="#08242B"/>
</g>
<path fill-rule="evenodd" clip-rule="evenodd" d="M488.691 181.308C488.691 181.308 488.617 188.335 485.962 195.358V195.363C483.569 201.69 479.079 208.008 470.663 209.171C463.963 210.097 458.76 207.27 454.874 203.389C448.474 196.994 445.668 187.174 445.668 187.174C445.668 187.174 443.26 186.505 439.36 182.013C434.77 176.727 437.775 169.957 442.282 172.416C440.873 167.585 439.069 161.747 439.089 158.215V158.211C441.338 155.048 448.913 145.128 463.562 143.066C479.619 140.809 486.458 148.459 487.471 149.721L487.507 149.77L487.593 149.889L487.601 149.897V167.265C487.601 167.265 490.587 162.867 493.198 168.47C495.425 173.248 488.691 181.308 488.691 181.308Z" fill="#AB5D15"/>
<path fill-rule="evenodd" clip-rule="evenodd" d="M489.375 205.217L469.982 219.559C469.982 219.559 461.648 212.728 456.051 209.356C456.08 209.278 456.108 209.2 456.128 209.118C456.555 207.631 455.735 205.279 454.875 203.394C458.759 207.274 463.963 210.102 470.662 209.175C479.079 208.012 483.569 201.694 485.962 195.367C486.408 197.157 487.069 199.145 487.687 200.861C488.572 203.312 489.375 205.217 489.375 205.217Z" fill="#7D440F"/>
<path fill-rule="evenodd" clip-rule="evenodd" d="M496.475 213.41C496.475 213.41 496.278 213.75 495.926 214.348C493.312 218.823 482.24 237.77 482 238.13C481.725 238.539 466.973 220.1 466.973 220.1L456.459 234.167C456.459 234.167 446.478 220.265 447.577 214.963C447.65 214.577 447.79 214.241 447.99 213.954C450.055 211.045 453.915 209.685 456.128 209.115C456.107 209.198 456.079 209.275 456.05 209.353C461.647 212.725 469.982 219.556 469.982 219.556L489.375 205.214C489.375 205.214 488.572 203.309 487.686 200.86C488.736 200.523 489.744 200.405 490.329 200.843C491.968 202.072 496.475 213.41 496.475 213.41Z" fill="#E5E4E0"/>
<path fill-rule="evenodd" clip-rule="evenodd" d="M576.245 381.541C574.032 384.025 571.41 385.704 568.57 386.778C561.265 389.548 552.533 388.294 545.67 386.373C538.929 384.483 533.996 381.951 533.996 381.951C533.996 381.951 537.319 347.532 531.173 349.171C525.026 350.81 536.09 520.445 533.631 527.412C533.299 528.358 531.669 529.3 529.07 530.223C522.117 532.697 508.239 535.017 493.796 536.769C485.839 537.737 477.705 538.528 470.469 539.081C459.591 539.913 450.727 540.195 447.494 539.704C436.825 538.077 453.084 418.12 453.316 416.39L426.299 525.256C426.299 525.261 426.302 525.261 426.299 525.264L425.868 527.001C425.868 527.001 424.229 520.036 419.451 509.792C414.674 499.549 389.401 503.646 389.401 503.646L418.697 280.538L412.572 282.44L409.572 283.37L406.281 282.235L355.453 264.681C374.841 266.234 371.843 217.569 371.47 212.356C371.445 212.061 371.433 211.906 371.433 211.906L407.654 224.129C408.768 223.047 410.052 222.166 411.526 221.535C427.531 214.675 442.409 214.63 447.58 214.963C446.483 220.265 456.464 234.167 456.464 234.167C456.464 234.167 461.925 247.145 471.985 248.374C482.048 249.603 512.734 219.556 512.734 219.556C512.734 219.556 536.09 224.199 549.202 245.095C562.314 265.992 570.099 349.581 576.245 381.541Z" fill="#08242B"/>
<path fill-rule="evenodd" clip-rule="evenodd" d="M512.731 219.555C512.731 219.555 482.045 249.602 471.982 248.373C461.922 247.144 456.461 234.167 456.461 234.167L466.975 220.1C466.975 220.1 481.726 238.538 482 238.129C482.242 237.769 493.314 218.822 495.928 214.348L512.731 219.555Z" fill="#BFBEBB"/>
<path fill-rule="evenodd" clip-rule="evenodd" d="M464.793 600.961C471.279 610.894 471.148 618.822 465.981 624.94L465.977 624.944C465.927 625.009 465.871 625.071 465.817 625.136C460.49 631.282 445.329 629.439 438.979 627.39C438.339 627.182 437.778 626.796 437.283 626.263C432.911 621.514 434.123 605.096 434.677 599.937C435.291 594.2 433.038 580.473 430.373 566.952C428.703 558.466 427.194 538.761 426.297 525.265C426.302 525.26 426.297 525.26 426.297 525.257L453.316 416.391C453.082 418.119 436.823 538.078 447.494 539.705C450.727 540.196 459.589 539.913 470.468 539.082C468.538 558.549 465.088 593.914 464.793 600.961Z" fill="black"/>
<path fill-rule="evenodd" clip-rule="evenodd" d="M530.215 612.762C530.195 612.791 530.166 612.815 530.141 612.844C524.405 618.785 510.679 616.941 507.81 616.941C507.594 616.941 507.372 616.892 507.151 616.797C504.475 615.659 501.669 608.071 499.222 604.853C496.575 601.371 497.362 596.863 499 588.464C500.246 582.084 495.936 551.234 493.789 536.769C508.232 535.016 522.111 532.698 529.064 530.223L527.683 588.259C527.683 588.259 535.805 606.734 530.215 612.762Z" fill="black"/>
<path fill-rule="evenodd" clip-rule="evenodd" d="M463.706 645.629V645.633C463.702 646.06 463.653 646.448 463.558 646.784C462.739 649.652 455.088 662.085 445.394 662.085C439.117 662.085 435.986 655.901 434.93 649.985V649.98C434.355 646.76 434.397 643.617 434.876 641.597C435.724 638.036 436.675 631.05 437.277 626.264C437.773 626.797 438.333 627.182 438.973 627.391C445.324 629.44 460.485 631.284 465.812 625.138C465.865 625.072 465.923 625.011 465.972 624.945C465.611 628.6 464.816 632.731 463.558 634.492C461.751 637.025 463.771 642.425 463.706 645.629Z" fill="#08242B"/>
<path fill-rule="evenodd" clip-rule="evenodd" d="M464.522 648.563C464.522 648.563 463.976 666.452 447.451 666.452C435.466 666.452 434.54 655.828 434.937 649.985C435.994 655.902 439.125 662.084 445.402 662.084C455.097 662.084 462.747 649.652 463.566 646.784C463.662 646.448 463.71 646.059 463.715 645.633L464.522 648.563Z" fill="black"/>
<path fill-rule="evenodd" clip-rule="evenodd" d="M530.757 643.369C528.844 644.734 519.56 645.283 516.961 644.598C514.536 643.96 507.918 636.736 507.193 633.462C507.14 633.241 507.118 633.035 507.127 632.852C507.226 630.859 507.185 622.013 507.152 616.797C507.372 616.891 507.595 616.941 507.811 616.941C510.68 616.941 524.407 618.785 530.143 612.843C530.167 612.815 530.196 612.79 530.217 612.762C531.897 616.953 534.187 622.878 535.441 626.971C535.441 626.975 535.445 626.98 535.445 626.984C535.982 628.734 536.33 630.147 536.358 630.942C536.493 634.901 532.671 642.005 530.757 643.369Z" fill="#08242B"/>
<path fill-rule="evenodd" clip-rule="evenodd" d="M537.045 635.175C536.774 636.949 532.677 649.791 522.569 649.927C512.46 650.061 507.817 641.731 507.817 640.707C507.817 639.682 507.133 633.671 507.133 633.671L507.199 633.462C507.924 636.737 514.542 643.959 516.967 644.599C519.566 645.284 528.85 644.735 530.763 643.37C532.677 642.006 536.499 634.9 536.365 630.942C536.336 630.148 535.988 628.734 535.451 626.984C536.705 630.295 537.234 633.946 537.045 635.175Z" fill="black"/>
<path fill-rule="evenodd" clip-rule="evenodd" d="M565.726 409.067C565.279 409.292 564.726 409.484 564.096 409.652C558.703 411.09 547.394 410.652 544.722 410.525C544.354 410.508 544.148 410.496 544.148 410.496L545.669 386.371C552.533 388.292 561.264 389.546 568.57 386.776C568.771 396.434 568.41 407.723 565.726 409.067Z" fill="#BFBEBB"/>
<path fill-rule="evenodd" clip-rule="evenodd" d="M566.205 425.387C566.205 425.387 563.541 435.528 561.697 435.323C561.492 436.757 559.65 440.137 557.293 440.854C557.395 442.391 549.815 445.054 549.815 445.054C549.815 445.054 541.723 447.001 541.723 445.874C541.723 444.747 545.205 442.903 546.741 440.65C548.279 438.396 547.151 424.875 546.23 424.875C545.308 424.875 545.512 426.821 545.512 433.786C545.512 440.753 539.878 439.215 539.878 439.215C539.878 439.215 539.366 426.514 540.698 422.313C541.628 419.376 543.611 413.684 544.721 410.53C547.393 410.657 558.702 411.095 564.095 409.656L566.205 425.387Z" fill="#AB5D15"/>
<path fill-rule="evenodd" clip-rule="evenodd" d="M355.452 264.683C345.528 263.888 348.199 250.887 353.588 237.689C357.136 242.643 361.327 245.364 365.151 245.29C365.151 245.29 373.755 222.889 367.744 214.829C367.26 214.182 366.773 213.395 366.285 212.498C367.441 210.522 368.153 209.367 368.153 209.367L371.469 212.359C371.841 217.57 374.841 266.236 355.452 264.683Z" fill="#150811"/>
<path fill-rule="evenodd" clip-rule="evenodd" d="M353.49 176.973C352.961 178.39 352.474 179.391 352.077 179.652C345.111 184.365 345.119 172.174 345.119 172.174L347.979 161.624C352.589 157.526 357.915 160.702 357.915 160.702C357.915 160.702 355.448 171.707 353.49 176.973ZM367.743 214.825C367.259 214.177 366.772 213.391 366.284 212.493C360.699 202.226 355.102 177.272 356.609 175.763C358.248 174.124 365.149 159.034 365.558 156.166C365.968 153.298 365.694 152.748 363.986 150.359C363.268 149.355 362.322 149.22 361.576 149.257C360.548 149.311 359.904 149.692 360.777 148.585C362.28 146.671 356.134 141.62 353.676 140.66C353.607 140.631 353.537 140.607 353.463 140.59C351.062 139.842 348.439 142.107 346.982 144.758C345.482 147.491 340.834 149.814 338.515 152.134C336.193 154.457 342.473 172.485 342.473 176.448C342.473 180.406 341.654 183.414 343.158 186.691C344.662 189.969 343.433 206.22 346.711 221.246C348.19 228.027 350.672 233.612 353.586 237.685C357.134 242.639 361.326 245.359 365.149 245.285C365.149 245.285 373.754 222.885 367.743 214.825Z" fill="#AB5D15"/>
<path fill-rule="evenodd" clip-rule="evenodd" d="M357.914 160.708C357.914 160.708 355.448 171.714 353.489 176.979C351.567 171.506 347.47 171.6 345.117 172.182L347.978 161.63C352.588 157.533 357.914 160.708 357.914 160.708Z" fill="#E5E4E0"/>
<path fill-rule="evenodd" clip-rule="evenodd" d="M353.48 176.982C352.951 178.4 352.463 179.4 352.067 179.662C347.124 183.005 345.481 178.613 344.944 175.78C344.718 174.585 344.789 173.357 345.109 172.184C347.46 171.602 351.559 171.508 353.48 176.982Z" fill="white"/>
<path fill-rule="evenodd" clip-rule="evenodd" d="M369.871 120.652C369.871 120.652 363.43 142.839 361.574 149.256C360.546 149.309 359.902 149.69 360.774 148.584C362.278 146.671 356.132 141.618 353.674 140.659C353.604 140.631 353.535 140.606 353.461 140.59C354.911 135.268 358.275 122.901 359.545 118.295C366.512 113.788 369.871 120.652 369.871 120.652Z" fill="#E5E4E0"/>
<path fill-rule="evenodd" clip-rule="evenodd" d="M487.601 153.591C486.59 152.329 478.081 146.542 460.089 148.397C445.374 149.914 441.338 155.052 439.089 158.216V158.219C438.418 157.376 437.461 155.389 437.446 151.829C437.404 143.022 442.322 127.458 460.228 127.068C483.038 126.569 483.438 136.859 487.588 146.682L487.601 153.591Z" fill="black"/>
<path fill-rule="evenodd" clip-rule="evenodd" d="M53.2544 191.513C53.2544 191.513 49.2656 186.725 44.2119 186.725C39.1594 186.725 34.3719 190.183 33.3082 184.331C32.2444 178.481 25.8619 175.666 25.0632 171.621C24.2657 167.576 33.5733 165.449 30.9144 161.993C28.2545 158.534 22.1382 160.396 22.1382 157.47C22.1382 154.545 20.542 146.833 22.1382 146.301C23.7344 145.769 16.8183 141.514 19.212 135.929C21.6058 130.344 18.9458 119.927 23.4682 119.417C27.9894 118.908 24.797 106.143 32.2444 106.143C39.6907 106.143 43.1482 99.7591 48.7331 104.547C54.3181 109.334 68.6794 106.94 72.4031 109.6C76.1267 112.259 83.3068 103.749 84.903 109.865C86.4981 115.983 92.3493 111.195 90.7531 107.738C89.158 104.28 88.3737 95.7703 91.0259 98.6953C93.6792 101.621 95.8419 104.014 97.2874 108.536C98.7318 113.057 101.923 111.461 104.583 115.983C107.242 120.504 120.274 115.716 121.338 123.429C122.402 131.141 136.763 129.014 138.093 135.396C139.423 141.78 129.848 136.922 133.837 144.803C137.827 152.684 122.933 142.844 126.923 150.556C130.912 158.269 133.837 170.236 133.837 170.236C133.837 170.236 124.795 174.115 131.444 178.292C138.093 182.47 127.454 186.991 126.657 187.789C125.858 188.587 126.657 192.576 124.795 193.374C122.933 194.171 119.476 204.544 119.476 204.544L92.8806 200.023L53.2544 191.513Z" fill="black"/>
<path fill-rule="evenodd" clip-rule="evenodd" d="M94.0551 170.498C90.3688 173.897 86.5714 172.988 86.1721 170.498C85.9004 170.674 84.1304 172.732 81.9754 174.631C81.9754 174.646 81.9589 174.646 81.9589 174.646C80.2362 176.195 78.2891 177.614 76.694 177.886C73.1035 178.477 65.4284 179.068 58.7422 174.695C56.5564 173.259 55.1362 171.121 54.21 168.903V168.887C52.3432 164.322 52.5665 159.424 52.5665 159.424C52.5665 159.424 48.9759 159.026 50.9703 153.536C52.9658 148.063 53.5566 144.76 55.551 147.76C59.4441 140.483 62.6353 132.328 70.3115 130.478C77.9866 128.611 82.8533 130.478 82.8533 130.478C92.954 135.791 94.8208 138.712 92.954 143.499C91.0872 148.286 92.3797 151.477 93.592 153.344C94.7889 155.163 91.2786 163.525 91.1026 163.972C91.3743 163.829 94.3576 162.137 96.1452 162.647C98.012 163.189 97.7414 167.099 94.0551 170.498Z" fill="#AB5D15"/>
<path fill-rule="evenodd" clip-rule="evenodd" d="M81.9619 174.647C78.5946 180.982 77.4935 187.556 77.4935 187.556L59.4471 194.737L50.3672 192.742C50.3672 192.742 52.872 181.875 53.6707 176.179C53.9413 174.2 54.1173 171.535 54.213 168.902C55.1381 171.12 56.5583 173.259 58.7452 174.695C65.4303 179.067 73.1064 178.476 76.6959 177.887C78.2921 177.615 80.2392 176.195 81.9619 174.647Z" fill="#7D440F"/>
<path fill-rule="evenodd" clip-rule="evenodd" d="M108.954 441.827C106.825 443.361 100.081 445.731 97.8382 441.827C96.8437 440.096 92.1168 436.121 90.5547 435.482C96.7876 431.933 106.37 430.271 112.745 425.473C113.114 427.502 113.483 429.774 113.682 431.534C114.164 435.68 111.084 440.294 108.954 441.827Z" fill="#7D440F"/>
<path fill-rule="evenodd" clip-rule="evenodd" d="M121.844 427.386C120.906 433.065 117.825 449.036 117.356 457.087C116.875 465.137 113.808 475.075 109.776 473.882C109.591 473.825 109.406 473.754 109.237 473.669C105.757 471.88 105.701 463.546 105.872 458.861C106.283 448.298 98.035 445.091 97.8359 441.824C100.079 445.729 106.822 443.358 108.952 441.824C111.082 440.291 114.163 435.677 113.68 431.532C113.481 429.771 113.112 427.5 112.743 425.47C115.427 423.439 118.081 421.395 120.694 419.379C121.56 421.566 122.325 424.504 121.844 427.386Z" fill="#A32934"/>
<path fill-rule="evenodd" clip-rule="evenodd" d="M127.044 423.367C126.93 427.513 123.609 439.694 123.381 442.533C123.14 445.372 123.679 454.488 121.989 461.231C120.301 467.974 118.284 478.523 109.227 473.667C109.397 473.753 109.581 473.823 109.766 473.88C113.798 475.073 116.865 465.135 117.347 457.085C117.816 449.036 120.897 433.064 121.834 427.384C122.316 424.502 121.549 421.564 120.684 419.378C121.848 418.469 122.998 417.561 124.133 416.68C125.539 418.497 127.101 421.067 127.044 423.367Z" fill="#7A1F27"/>
<path fill-rule="evenodd" clip-rule="evenodd" d="M153.431 398.992C147.71 398.466 136.735 406.886 124.143 416.682C123.007 417.562 121.857 418.47 120.693 419.379C118.081 421.394 115.426 423.439 112.742 425.469C106.367 430.267 82.2827 441.023 77.3522 442.355C71.4394 443.953 64.6433 444.621 59.5313 441.327C57.1321 439.794 55.2862 437.764 54.5349 435.195C52.4459 428.094 55.7658 386.92 55.691 379.449L96.6428 383.148C95.9333 383.857 90.7366 406.573 90.7366 406.573C90.7366 406.573 129.608 392.703 137.701 382.792C137.886 382.594 138.028 382.395 138.169 382.196C138.169 382.196 151.075 381.955 154.269 387.762C151.898 388.117 152.253 394.86 153.431 398.992Z" fill="#AB5D15"/>
<path fill-rule="evenodd" clip-rule="evenodd" d="M59.5254 441.33C46.3368 441.486 17.8828 441.626 14.2933 432.839C2.7713 404.638 36.4319 317.555 36.4319 317.555L51.9163 387.167C51.9163 387.167 51.9163 387.679 51.9306 388.602C51.9592 391.398 56.6301 390.806 56.8578 398.217L52.2573 405.425L44.8176 417.436L55.6851 415.635C56.0822 423.457 53.6764 432.3 54.5289 435.197C55.2803 437.767 57.1262 439.796 59.5254 441.33Z" fill="#AB5D15"/>
<path fill-rule="evenodd" clip-rule="evenodd" d="M185.858 403.256C185.829 403.568 185.73 403.823 185.588 404.022C184.111 406.166 176.87 402.176 172.725 400.544C166.45 398.059 161.012 403.256 153.43 398.996C152.252 394.865 151.898 388.121 154.269 387.767C151.075 381.96 138.169 382.202 138.169 382.202C138.027 382.4 137.886 382.599 137.701 382.798C137.105 381.661 136.722 379.972 137.701 377.828C139.59 373.683 142.556 370.02 142.556 370.02L142.571 370.034C143.167 370.346 162.333 380.639 171.178 386.702C180.178 392.849 186.212 399.592 185.858 403.256Z" fill="#A32934"/>
<path fill-rule="evenodd" clip-rule="evenodd" d="M190.104 399.347C188.614 402.47 186.91 403.621 185.576 404.018C185.718 403.819 185.817 403.563 185.845 403.251C186.199 399.588 180.166 392.844 171.165 386.697C162.321 380.635 143.154 370.343 142.558 370.03L142.544 370.016C142.544 370.016 141.834 366.694 145.028 365.983C148.222 365.274 159.935 372.969 167.616 377.697C175.311 382.438 192.943 393.441 190.104 399.347Z" fill="#7A1F27"/>
<mask id="mask1_2740_12406" style="mask-type:alpha" maskUnits="userSpaceOnUse" x="0" y="108" width="148" height="302">
<path fill-rule="evenodd" clip-rule="evenodd" d="M0 108.781H147.861V409.849H0V108.781Z" fill="white"/>
</mask>
<g mask="url(#mask1_2740_12406)">
<path fill-rule="evenodd" clip-rule="evenodd" d="M142.55 237.762C132.577 244.943 101.588 234.841 101.588 234.841C93.6093 242.277 107.766 321.149 96.8016 384.295C93.6258 402.584 109.231 409.842 109.231 409.842C109.231 409.842 62.7329 410.48 52.0899 398.785C41.4457 387.088 33.5099 365.941 33.5099 365.941L17.6064 406.938L0 387.33C0 387.33 21.8031 332.18 18.6118 284.308C15.4206 236.437 34.0423 228.714 27.5311 209.039C21.021 189.364 27.5311 108.781 27.5311 108.781H28.2648C28.6807 109.164 29.1911 109.594 29.5255 110.106C30.9303 112.211 46.2013 118.674 62.206 113.599C48.9305 133.163 48.9624 171.205 49.9986 176.854C49.9986 176.854 55.0578 186.699 61.9673 186.172C63.7537 186.029 65.142 185.821 66.2113 185.582H66.2278C67.7756 185.231 68.6369 184.833 69.1154 184.514L73.9348 191.215L86.4292 184.034C86.4292 184.034 86.812 183.842 87.482 183.555C89.6205 182.662 94.7907 180.906 100.264 181.912C107.445 183.236 117.29 195.204 117.29 195.204L122.667 200.135C121.487 200.597 120.688 201.299 120.369 202.226C119.763 204.045 121.247 206.358 124.056 208.465C126.178 210.092 129.051 211.576 132.37 212.677C135.273 213.634 138.098 214.161 140.539 214.257C142.869 214.369 144.848 214.097 146.236 213.459C148.789 221.278 148.868 233.214 142.55 237.762Z" fill="#08242B"/>
</g>
<path fill-rule="evenodd" clip-rule="evenodd" d="M87.4835 183.552C86.8135 183.839 86.4307 184.031 86.4307 184.031L73.9363 191.212L61.9688 186.169L85.7124 180.504L87.4835 183.552Z" fill="white"/>
<path fill-rule="evenodd" clip-rule="evenodd" d="M63.566 111.703C63.0864 112.309 62.6409 112.947 62.2097 113.602C46.205 118.676 30.934 112.213 29.5292 110.107C29.1937 109.596 28.6844 109.166 28.2685 108.782C26.8011 107.394 26.4336 106.469 38.3066 102.927C38.8005 102.783 39.2955 102.64 39.7905 102.527C37.9226 107.06 36.4387 110.506 36.4387 110.506C36.4387 110.506 45.7418 114.624 49.6041 113.027C50.9121 112.485 52.6832 108.399 54.4224 103.246C61.5551 105.608 65.8322 110.235 63.566 111.703Z" fill="black"/>
<path fill-rule="evenodd" clip-rule="evenodd" d="M66.7483 68.6093C64.7539 71.673 61.1633 79.2524 61.1633 79.2524C61.1633 79.2524 57.8126 93.2473 54.4134 103.236C52.6742 108.391 50.9031 112.475 49.5952 113.017C45.7329 114.614 36.4297 110.496 36.4297 110.496C36.4297 110.496 37.9137 107.05 39.7816 102.517C42.9244 94.9227 47.1211 84.2477 47.2003 81.502C47.3136 77.8168 44.8869 72.0558 46.4193 66.4389L50.6633 71.8006C50.6633 71.8006 56.1053 65.4181 60.0941 68.3376C61.3229 67.4444 64.0037 65.1144 67.3875 62.0508C67.7219 64.109 67.8814 66.8701 66.7483 68.6093Z" fill="#AB5D15"/>
<mask id="mask2_2740_12406" style="mask-type:alpha" maskUnits="userSpaceOnUse" x="24" y="0" width="74" height="72">
<path fill-rule="evenodd" clip-rule="evenodd" d="M24.1875 0H97.734V71.8066H24.1875V0Z" fill="white"/>
</mask>
<g mask="url(#mask2_2740_12406)">
<path fill-rule="evenodd" clip-rule="evenodd" d="M84.1034 41.2956C83.0023 45.0292 60.9176 63.7313 58.8593 65.4859C58.8274 65.5189 58.7955 65.5343 58.7636 65.5508C58.7317 65.5827 58.7317 65.5827 58.7152 65.5981L58.6998 65.6146V65.5981C58.3324 65.8852 57.998 66.0128 57.6944 65.949C54.5031 65.2945 43.6049 55.7207 41.6105 43.7532C39.615 31.7856 51.9499 23.8861 55.8441 20.4716C59.7856 17.0086 67.6356 14.5676 76.5879 17.1527C91.2043 21.3659 84.6458 39.8436 84.1199 41.2153C84.1199 41.2483 84.1034 41.2637 84.1034 41.2956ZM69.9366 0L24.1875 38.425L46.4163 66.4456L50.6604 71.8073C50.6604 71.8073 56.1023 65.4247 60.0911 68.3443C61.3199 67.451 64.0007 65.1211 67.3834 62.0575C78.6326 51.8764 97.734 33.6375 97.734 33.6375L69.9366 0Z" fill="black"/>
</g>
<path fill-rule="evenodd" clip-rule="evenodd" d="M84.1325 41.2159C84.1325 41.2478 84.116 41.2632 84.116 41.2962C84.116 41.2962 84.9136 22.1475 73.7447 20.4721C62.5747 18.8121 67.9518 45.0771 67.6493 45.8757C67.3611 46.5775 62.2392 62.4547 58.873 65.4864C58.84 65.5183 58.8081 65.5348 58.7762 65.5502C58.7443 65.5821 58.7443 65.5821 58.7289 65.5986H58.7124C58.3461 65.8857 58.0106 66.0133 57.7081 65.9495C54.5168 65.295 43.6175 55.7212 41.6231 43.7526C39.6276 31.7851 51.9625 23.8867 55.8567 20.4721C59.7982 17.0091 67.6493 14.5681 76.6004 17.1521C91.2169 21.3654 84.6595 39.843 84.1325 41.2159Z" fill="#08242B"/>
<path fill-rule="evenodd" clip-rule="evenodd" d="M84.1113 41.2979C83.0101 45.0315 60.9254 63.7335 58.8672 65.4881C62.2345 62.4575 67.3563 46.5803 67.6434 45.8774C67.9471 45.0799 62.5689 18.8149 73.7388 20.4738C84.9088 22.1492 84.1113 41.2979 84.1113 41.2979Z" fill="black"/>
<path fill-rule="evenodd" clip-rule="evenodd" d="M148.231 211.494C147.959 212.34 147.257 212.995 146.236 213.457C144.848 214.096 142.869 214.366 140.539 214.255C141.114 211.606 141.689 209.021 142.375 206.851C142.486 206.42 142.614 206.021 142.758 205.638C142.901 205.223 143.045 204.761 143.173 204.266C146.858 206.627 148.932 209.372 148.231 211.494Z" fill="black"/>
<path fill-rule="evenodd" clip-rule="evenodd" d="M126.767 199.434C126.001 201.285 125.523 202.417 125.523 202.417C125.523 202.417 125.506 202.514 125.474 202.673C125.283 203.407 124.725 205.625 124.054 208.465C121.246 206.358 119.762 204.045 120.369 202.226C120.688 201.3 121.486 200.599 122.666 200.135H122.682C123.752 199.689 125.155 199.449 126.767 199.434Z" fill="black"/>
<path fill-rule="evenodd" clip-rule="evenodd" d="M161.653 139.326C154.496 140.452 147.338 142.556 135.669 147.753C134.837 148.109 134.021 148.465 133.222 148.832C122.542 153.632 113.909 157.898 113.909 157.898L110.008 148.303C110.008 148.303 119.476 145.957 130.605 142.363C131.437 142.103 132.281 141.825 133.142 141.544C145.512 137.416 152.899 135.228 157.752 129.731C161.862 125.061 160.715 131.009 161.794 133.649C161.794 133.649 169.361 138.112 161.653 139.326Z" fill="#D3DCE3"/>
<path fill-rule="evenodd" clip-rule="evenodd" d="M116.754 151.143C117.835 153.795 116.563 156.821 113.912 157.904C111.258 158.985 112.632 155.223 110.094 153.895C106.684 152.11 107.341 149.382 109.993 148.299C112.645 147.218 115.673 148.491 116.754 151.143Z" fill="white"/>
<path fill-rule="evenodd" clip-rule="evenodd" d="M135.658 147.756C134.827 148.113 134.009 148.467 133.212 148.836L130.594 142.366C131.425 142.106 132.27 141.827 133.13 141.547L135.658 147.756Z" fill="#A32934"/>
<path fill-rule="evenodd" clip-rule="evenodd" d="M132.343 142.506C132.343 142.506 119.854 142.888 124.391 136.857C129.219 130.439 132.343 142.506 132.343 142.506Z" stroke="#A32934" stroke-width="1.451"/>
<path fill-rule="evenodd" clip-rule="evenodd" d="M132.346 142.505C132.346 142.505 129.391 133.328 134.14 133.571C138.89 133.813 139.943 141.003 132.346 142.505Z" stroke="#A32934" stroke-width="1.451"/>
<path d="M132.181 142.945C132.181 142.945 129.103 145.769 132.3 148.976C135.496 152.182 130.414 156.012 130.414 156.012" stroke="#A32934" stroke-width="1.451" stroke-linecap="round"/>
<path fill-rule="evenodd" clip-rule="evenodd" d="M148.087 154.926C148.087 159.521 148.087 161.755 146.969 167.947C145.916 173.835 145.644 195.201 143.171 204.266C143.044 204.76 142.901 205.223 142.757 205.638C142.613 206.02 142.485 206.42 142.374 206.85C141.687 209.02 141.113 211.605 140.539 214.254C138.097 214.159 135.273 213.632 132.369 212.675C129.05 211.573 126.178 210.09 124.055 208.463C124.726 205.621 125.283 203.403 125.475 202.67C125.508 202.51 125.523 202.414 125.523 202.414C125.523 202.414 126.002 201.281 126.767 199.43C129.386 192.984 135.337 177.761 135.815 170.931C136.438 162.123 135.815 144.33 135.815 144.33C135.815 144.33 130.103 141.171 133.581 136.703C137.061 132.235 139.278 129.762 141.513 130.384C143.746 131.006 152.188 135.219 153.049 137.07C153.91 138.937 148.087 150.347 148.087 154.926Z" fill="#AB5D15"/>
<path fill-rule="evenodd" clip-rule="evenodd" d="M54.6112 415.812C54.7278 420.373 54.7091 424.782 55.2778 429.109C55.5825 431.256 55.9093 433.407 56.5979 435.45C57.2821 437.494 58.2018 439.441 59.5262 441.329C57.5681 440.117 56.049 438.198 55.0072 436.096C53.9457 433.984 53.4066 431.678 53.0953 429.384C52.7862 427.08 52.8269 424.763 53.0656 422.484C53.3164 420.209 53.763 417.95 54.6112 415.812Z" fill="#7D440F"/>
<path fill-rule="evenodd" clip-rule="evenodd" d="M37.75 577.48L34 584.105L50.044 594.975H57.75L58.5 588.23L37.75 577.48Z" fill="black"/>
<path d="M161.656 586.199V590.632L173.37 592.369C173.37 592.369 173.518 613.824 161.99 623.56" stroke="#1D3C47" stroke-width="4.688"/>
<path fill-rule="evenodd" clip-rule="evenodd" d="M173.367 621.074C173.367 633.399 165.658 643.39 156.149 643.39C146.639 643.39 138.93 633.399 138.93 621.074C138.93 608.749 146.639 598.758 156.149 598.758C165.658 598.758 173.367 608.749 173.367 621.074Z" fill="black"/>
<path d="M280.188 553.811L301.267 485.051" stroke="#1D3C47"/>
<path d="M320.557 499.449L281.141 550.705L315.257 617.647" stroke="#1D3C47"/>
<path d="M275.555 555.376L340.636 530.371" stroke="#1D3C47"/>
<path d="M279.461 549.266L342.884 550.706" stroke="#1D3C47"/>
<path d="M281.141 555.375L341.937 575.702" stroke="#1D3C47"/>
<path d="M331.222 595.83L279.466 555.375L229.555 599.968" stroke="#1D3C47"/>
<path d="M284.891 549.016L290.729 628.897" stroke="#1D3C47"/>
<path d="M277.301 549.266L275.555 628.894" stroke="#1D3C47"/>
<path d="M258.948 624.789L284.888 553.812L219.555 579.747" stroke="#1D3C47"/>
<path d="M278.475 553.812L245.891 617.648" stroke="#1D3C47"/>
<path d="M285.081 551.715L214.617 558.551" stroke="#1D3C47"/>
<path d="M281.644 557.08L216.008 537.871" stroke="#1D3C47"/>
<path d="M278.475 550.707L235.891 502.164" stroke="#1D3C47"/>
<path d="M282.21 552.819C281.135 550.709 260.625 485.055 260.625 485.055" stroke="#1D3C47"/>
<path fill-rule="evenodd" clip-rule="evenodd" d="M353.623 552.709C353.623 599.443 319.398 637.328 277.179 637.328C234.959 637.328 200.734 599.443 200.734 552.709C200.734 505.975 234.959 468.09 277.179 468.09C319.398 468.09 353.623 505.975 353.623 552.709Z" stroke="black" stroke-width="9"/>
<path fill-rule="evenodd" clip-rule="evenodd" d="M344.251 554.272C344.251 595.496 315.19 628.915 279.343 628.915C243.497 628.915 214.438 595.496 214.438 554.272C214.438 513.048 243.497 479.629 279.343 479.629C315.19 479.629 344.251 513.048 344.251 554.272Z" stroke="black" stroke-width="5.048"/>
<path fill-rule="evenodd" clip-rule="evenodd" d="M320.415 296.055C320.157 300.587 317.707 307.986 314.197 306.647C314.162 306.758 314.126 306.876 314.092 306.999C312.731 306.074 311.673 305.03 311.673 305.03C311.673 305.03 310.171 313.061 308.114 316.322C306.053 319.582 288.662 329.508 280.599 326.21C279.478 325.751 278.391 324.957 277.35 323.924C270.914 317.534 266.271 301.891 266.19 298.531C266.113 295.324 267.813 286.894 268.419 284.006C268.552 283.381 268.633 283.019 268.633 283.019C268.633 283.019 266.889 275.832 273.71 275.922C280.528 276.009 293.362 272.07 300.11 273.9C302.893 274.654 306.102 276.072 309.09 278.185C311.081 285.513 311.437 293.924 311.437 293.924C311.437 293.924 315.385 291.245 318.153 291.493C318.334 291.507 318.508 291.538 318.675 291.577C318.675 291.577 318.759 291.575 318.894 291.613C319.404 291.75 320.624 292.458 320.415 296.055Z" fill="#AB5D15"/>
<path fill-rule="evenodd" clip-rule="evenodd" d="M314.086 306.996C312.795 311.254 310.988 320.011 310.988 320.011C310.988 320.011 283.025 333.238 278.097 337.015C277.989 335.584 277.93 333.514 277.832 331.203C277.737 328.884 277.604 326.32 277.344 323.921C278.385 324.954 279.472 325.748 280.593 326.207C288.656 329.506 306.047 319.579 308.108 316.319C310.166 313.058 311.668 305.027 311.668 305.027C311.668 305.027 312.725 306.071 314.086 306.996Z" fill="#7D440F"/>
<path fill-rule="evenodd" clip-rule="evenodd" d="M318.445 331.174C318.445 331.174 295.747 331.978 270.583 357.022C269.919 355.685 269.375 352.444 269.227 349.202C269.086 346.103 269.304 343.005 270.127 341.556C271.598 338.955 272.737 332.942 277.834 331.203C277.932 333.514 277.991 335.584 278.099 337.015C283.027 333.239 310.99 320.012 310.99 320.012L318.116 330.679L318.445 331.174Z" fill="white"/>
<mask id="mask3_2740_12406" style="mask-type:alpha" maskUnits="userSpaceOnUse" x="249" y="239" width="95" height="51">
<path fill-rule="evenodd" clip-rule="evenodd" d="M249.773 239.133H343.735V289.806H249.773V239.133Z" fill="white"/>
</mask>
<g mask="url(#mask3_2740_12406)">
<path fill-rule="evenodd" clip-rule="evenodd" d="M317.747 273.682C316.883 277.308 317.508 283.141 318.145 289.806C318.085 282.026 317.8 265.876 316.473 262.282C314.711 257.505 311.487 255.944 306.034 254.049C300.58 252.155 283.504 252.938 277.378 254.1C272.29 255.067 270.34 263.747 268.867 271.441L249.773 268.102L281.864 239.133L343.735 257.025C343.735 257.025 320.156 272.399 317.747 273.682Z" fill="black"/>
</g>
<path fill-rule="evenodd" clip-rule="evenodd" d="M318.139 289.804C318.143 290.311 318.146 290.782 318.148 291.21C318.148 291.306 318.149 291.398 318.147 291.491C315.381 291.242 311.432 293.924 311.432 293.924C311.432 293.924 311.074 285.512 309.086 278.184C312.913 280.888 316.381 284.736 318.139 289.804Z" fill="black"/>
<path fill-rule="evenodd" clip-rule="evenodd" d="M318.14 289.804C316.382 284.736 312.914 280.888 309.087 278.184C306.098 276.068 302.889 274.654 300.107 273.897C293.355 272.066 280.525 276.007 273.704 275.919C266.884 275.831 268.626 283.015 268.626 283.015C268.626 283.015 268.548 283.38 268.416 284.003C267.715 283.318 266.901 281.387 267.995 275.948C268.279 274.536 268.559 273.008 268.862 271.44C270.335 263.745 272.286 255.065 277.373 254.099C283.499 252.937 300.575 252.153 306.029 254.048C311.482 255.942 314.706 257.503 316.468 262.281C317.795 265.875 318.08 282.025 318.14 289.804Z" fill="#08242B"/>
<path fill-rule="evenodd" clip-rule="evenodd" d="M330.671 356.509L283.11 413.451L282.978 413.611C280.089 417.117 275.129 423.005 274.168 423.288C272.796 423.692 269.755 427.228 268.572 428.82C267.389 430.412 263.997 433.272 263.997 433.272C263.997 433.272 255.871 434.485 252.555 433.031C249.239 431.577 247.988 432.272 247.988 432.272L235.009 439.561C234.949 438.764 231.584 416.671 238.697 411.326C238.257 411.259 237.781 411.221 237.289 411.204C239.581 410.216 242.917 408.971 245.054 409.245C248.494 409.687 258.828 403.198 264.309 402.786C266.04 402.656 268.322 402.915 270.769 403.493C278.615 394.804 318.841 345.775 318.841 345.775C318.841 345.775 318.859 345.806 318.892 345.867C322.004 343.781 334.628 353.452 330.671 356.509ZM367.246 372.496C364.598 361.272 348.815 340.614 337.482 336.488C329.833 333.705 322.241 331.693 318.114 330.68L318.444 331.175C318.444 331.175 295.746 331.98 270.58 357.021C269.918 355.686 269.374 352.446 269.226 349.203C262.133 352.183 241.432 361.553 235.905 371.554C229.202 383.682 213.313 398.906 207.415 405.763C201.518 412.62 176.539 433.22 187.19 437.948C241.741 462.156 346.034 450.338 346.034 450.338C346.034 450.338 369.895 383.72 367.246 372.496Z" fill="#08242B"/>
<path fill-rule="evenodd" clip-rule="evenodd" d="M270.77 403.494C268.323 402.916 266.041 402.657 264.31 402.787C258.829 403.2 248.495 409.689 245.055 409.246C243.302 409.021 240.751 409.819 238.623 410.658C233.876 419.416 235.717 428.881 238.253 437.741L247.989 432.273C247.989 432.273 249.24 431.578 252.556 433.032C255.872 434.486 263.998 433.274 263.998 433.274C263.998 433.274 267.39 430.413 268.573 428.821C269.755 427.229 272.796 423.693 274.169 423.289C275.129 423.007 280.09 417.118 282.978 413.612L283.111 413.452C284.277 412.036 285.072 411.046 285.072 411.046C282.132 407.497 276.065 404.747 270.77 403.494Z" fill="#AB5D15"/>
<path fill-rule="evenodd" clip-rule="evenodd" d="M238.624 410.656C238.157 410.84 237.703 411.025 237.291 411.203C236.337 412.952 235.496 415.731 234.852 419.093C233.235 427.531 234.968 438.99 235.011 439.561L238.254 437.739C235.718 428.879 233.877 419.414 238.624 410.656Z" fill="#7D440F"/>
<path fill-rule="evenodd" clip-rule="evenodd" d="M330.67 356.508C326.702 359.574 319.563 347.066 318.891 345.866C322.003 343.78 334.627 353.451 330.67 356.508Z" fill="white"/>
<path fill-rule="evenodd" clip-rule="evenodd" d="M283.114 413.449C284.28 412.032 285.075 411.043 285.075 411.043C282.135 407.494 276.068 404.744 270.773 403.491C278.619 394.802 318.845 345.773 318.845 345.773C318.845 345.773 318.863 345.804 318.896 345.866C319.568 347.066 326.707 359.574 330.675 356.507L283.114 413.449Z" fill="#D3DCE3"/>
<path fill-rule="evenodd" clip-rule="evenodd" d="M235.933 411.206C234.829 411.437 233.767 411.662 232.723 411.935L231.175 412.367C230.67 412.516 230.148 412.699 229.689 412.856L229.488 412.925L229.205 412.866C227.77 412.567 226.349 412.212 224.931 411.849C224.22 411.673 223.52 411.456 222.814 411.262C222.108 411.069 221.406 410.861 220.708 410.633L221.347 410.569C219.648 411.357 217.928 412.104 216.189 412.814C214.454 413.531 212.693 414.195 210.891 414.779C212.44 413.689 214.029 412.68 215.644 411.723C217.256 410.759 218.887 409.833 220.537 408.948L220.804 408.805L221.176 408.883C221.894 409.033 222.606 409.203 223.315 409.388C224.023 409.571 224.738 409.733 225.442 409.935C226.852 410.328 228.261 410.728 229.655 411.185L229.171 411.195C229.764 411.041 230.311 410.975 230.881 410.907C231.444 410.835 232.012 410.807 232.579 410.807C233.708 410.793 234.845 410.909 235.933 411.206Z" fill="black"/>
<path fill-rule="evenodd" clip-rule="evenodd" d="M182.72 545.417C178.036 564.831 160.42 607.687 159.662 607.308C159.569 607.261 119.367 591.828 119.367 591.828L143.765 538.98C149.965 549.224 175.176 546.578 182.72 545.417Z" fill="#1D3C47"/>
<path fill-rule="evenodd" clip-rule="evenodd" d="M331.436 516.448L222.005 524.61L194.881 560.016C194.881 560.016 147.148 550.109 143.766 538.981C143.153 536.973 143.344 534.481 144.613 531.409C145.154 530.096 145.63 528.69 146.048 527.208C152.863 503.07 144.736 458.389 170.215 449.555C170.947 449.302 171.748 449.086 172.613 448.909C203.714 442.509 348.043 438.016 348.043 438.016L331.436 516.448Z" fill="#08242B"/>
<path fill-rule="evenodd" clip-rule="evenodd" d="M172.612 448.909C171.746 449.086 170.946 449.302 170.214 449.555C144.735 458.389 152.862 503.07 146.047 527.208C139.509 526.851 116.358 523.854 106.25 518.935C112.997 493.708 131.212 454.26 138.482 450.816C145.261 447.607 162 448.159 172.612 448.909Z" fill="#08242B"/>
<path d="M223.414 608.536C222.527 592.63 228.627 469.928 237.429 461.814C246.23 453.701 341.312 467.584 341.312 467.584L336.478 517.771" stroke="#1D3C47" stroke-width="11.178"/>
<path fill-rule="evenodd" clip-rule="evenodd" d="M230.072 611.46H227.356C225.364 611.46 223.75 609.846 223.75 607.854V589.825C223.75 587.833 225.364 586.219 227.356 586.219H230.072C232.063 586.219 233.677 587.833 233.677 589.825V607.854C233.677 609.846 232.063 611.46 230.072 611.46Z" fill="#1D3C47"/>
<mask id="mask4_2740_12406" style="mask-type:alpha" maskUnits="userSpaceOnUse" x="200" y="621" width="36" height="45">
<path fill-rule="evenodd" clip-rule="evenodd" d="M200.695 621.098H235.132V665.73H200.695V621.098Z" fill="white"/>
</mask>
<g mask="url(#mask4_2740_12406)">
<path fill-rule="evenodd" clip-rule="evenodd" d="M235.132 643.414C235.132 655.739 227.423 665.731 217.914 665.731C208.404 665.731 200.695 655.739 200.695 643.414C200.695 631.089 208.404 621.098 217.914 621.098C227.423 621.098 235.132 631.089 235.132 643.414Z" fill="black"/>
</g>
<path d="M223.414 608.535V612.967L235.128 614.704C235.128 614.704 235.276 636.16 223.748 645.896" stroke="#1D3C47" stroke-width="4.688"/>
<path fill-rule="evenodd" clip-rule="evenodd" d="M339.048 466.966L351.747 419.35L358.073 395.535L361.235 383.627C362.289 379.658 363.359 375.693 364.24 371.677L365.457 366.133L369.606 370.467L393.273 395.185C395.167 397.163 395.098 400.301 393.121 402.195C391.143 404.088 388.005 404.02 386.111 402.042C385.988 401.914 385.871 401.776 385.765 401.639L364.883 374.526L370.248 373.316C368.968 377.223 367.877 381.182 366.77 385.137L363.448 397.001L356.806 420.729L343.57 468.199C343.223 469.446 341.93 470.175 340.683 469.828C339.445 469.483 338.718 468.205 339.048 466.966Z" fill="#1D3C47"/>
<path fill-rule="evenodd" clip-rule="evenodd" d="M86.6088 602.846C75.0728 602.702 53.6178 592.861 48.5078 588.743C51.6918 585.437 71.0458 587.903 74.8318 587.723C77.8138 587.582 87.4798 581.899 92.0948 579.105C95.7338 581.539 94.7448 588.743 116.185 593.391C115.002 593.929 118.177 604.297 111.119 605.974C102.468 608.03 83.6438 601.498 86.6088 602.846Z" fill="#0C181C"/>
<path fill-rule="evenodd" clip-rule="evenodd" d="M153.777 603.386C153.601 604.204 153.334 604.998 152.933 605.65C152.411 606.509 151.66 607.129 150.589 607.262C146.262 607.803 130.937 603.476 126.791 598.248C124.555 595.431 123.527 592.716 123.055 590.816C131.046 594.075 148.949 601.366 153.777 603.386Z" fill="black"/>
<path fill-rule="evenodd" clip-rule="evenodd" d="M153.882 622.258C153.695 622.431 153.496 622.547 153.291 622.586C150.586 623.127 118.493 613.571 109.299 610.146C100.114 606.724 69.5361 598.091 72.5071 596.807C72.5141 596.804 72.5181 596.804 72.5181 596.804L73.4561 596.598L73.4731 596.595C78.1901 596.079 93.3641 599.148 99.0221 599.148C100.702 599.148 103.125 598.322 105.757 597.125C110.773 594.842 116.557 591.204 119.413 589.336C119.94 589.552 121.241 590.082 123.048 590.814H123.051C123.524 592.715 124.551 595.43 126.787 598.246C130.934 603.475 146.259 607.802 150.586 607.261C151.657 607.128 152.407 606.507 152.93 605.649C153.658 606.147 154.426 606.713 155.093 607.308C157.001 608.999 156.153 620.145 153.882 622.258Z" fill="#102026"/>
<path fill-rule="evenodd" clip-rule="evenodd" d="M153.886 622.26C153.626 624.755 153.05 627.799 151.762 628.989C149.703 630.889 119.554 620.064 105.159 615.997C103.165 615.43 101.47 614.998 100.198 614.745C94.1246 613.541 83.6426 609.968 76.1846 606.582C70.8016 604.133 66.9976 601.786 67.5636 600.502C68.8726 597.534 72.2976 596.849 72.5106 596.809C69.5396 598.093 100.118 606.726 109.303 610.148C118.497 613.573 150.59 623.129 153.295 622.588C153.5 622.549 153.699 622.433 153.886 622.26Z" fill="black"/>
<path fill-rule="evenodd" clip-rule="evenodd" d="M144.612 531.409C143.342 534.481 143.152 536.973 143.764 538.981L129.586 585.498C129.586 585.498 129.676 585.534 129.845 585.603C126.99 587.47 125.391 591.109 120.375 593.391C114.613 589.504 95.383 577.066 95 576.813C95 576.813 98.709 570.147 102.423 562.9C105.609 556.682 106.148 544.149 107.59 539.944C108.012 538.715 109.952 530.991 112.743 520.559C128.465 523.272 139.509 526.851 146.047 527.208C145.629 528.69 145.153 530.097 144.612 531.409Z" fill="#1B3842"/>
<mask id="mask5_2740_12406" style="mask-type:alpha" maskUnits="userSpaceOnUse" x="45" y="588" width="71" height="25">
<path fill-rule="evenodd" clip-rule="evenodd" d="M45.9219 588.742H115.586V612.967H45.9219V588.742Z" fill="white"/>
</mask>
<g mask="url(#mask5_2740_12406)">
<path fill-rule="evenodd" clip-rule="evenodd" d="M115.586 612.26C112.586 612.707 108.335 613.205 106.146 612.841C102.54 612.242 81.1458 608.513 73.1518 606.891C65.1608 605.268 45.5658 598.359 45.9268 594.512C46.2878 590.664 48.5118 588.742 48.5118 588.742C53.6218 592.86 75.0768 602.701 86.6128 602.845C94.0698 606.231 104.552 609.804 110.625 611.009C111.898 611.261 113.592 611.694 115.586 612.26Z" fill="black"/>
</g>
<path fill-rule="evenodd" clip-rule="evenodd" d="M342.435 514.277L339.596 533.901L225.289 542.044L228.238 523.935L342.435 514.277Z" fill="#1D3C47"/>
<path d="M333.347 516.262C333.347 516.262 213.771 523.14 206.273 527.32C198.775 531.5 194.013 584.649 188.604 599.316C183.195 613.982 174.627 640.807 146.047 628.913" stroke="#1D3C47" stroke-width="10"/>
<path d="M352.672 574.92L373.752 506.16" stroke="#1D3C47"/>
<path d="M393.042 520.559L353.625 571.815L387.742 638.756" stroke="#1D3C47"/>
<path d="M348.039 576.482L413.12 551.477" stroke="#1D3C47"/>
<path d="M351.953 570.375L415.376 571.815" stroke="#1D3C47"/>
<path d="M353.625 576.48L414.422 596.806" stroke="#1D3C47"/>
<path d="M403.706 616.939L351.95 576.484L302.039 621.077" stroke="#1D3C47"/>
<path d="M357.375 570.121L363.213 650.002" stroke="#1D3C47"/>
<path d="M349.785 570.375L348.039 650.004" stroke="#1D3C47"/>
<path d="M331.432 645.895L357.372 574.918L292.039 600.853" stroke="#1D3C47"/>
<path d="M350.959 574.918L318.375 638.754" stroke="#1D3C47"/>
<path d="M357.573 572.82L287.109 579.656" stroke="#1D3C47"/>
<path d="M354.131 578.189L292.039 560.016" stroke="#1D3C47"/>
<path d="M350.959 571.813L308.375 523.27" stroke="#1D3C47"/>
<path d="M354.702 573.924C353.627 571.814 333.117 506.16 333.117 506.16" stroke="#1D3C47"/>
<path fill-rule="evenodd" clip-rule="evenodd" d="M52.625 599.062L148.875 625.604L144.359 637.328L50.125 607.311L52.625 599.062Z" fill="#1D3C47"/>
<path fill-rule="evenodd" clip-rule="evenodd" d="M426.233 574.92C426.233 621.654 392.008 659.539 349.789 659.539C307.569 659.539 273.344 621.654 273.344 574.92C273.344 528.186 307.569 490.301 349.789 490.301C392.008 490.301 426.233 528.186 426.233 574.92Z" stroke="black" stroke-width="9"/>
<path fill-rule="evenodd" clip-rule="evenodd" d="M416.86 576.483C416.86 617.707 387.8 651.126 351.953 651.126C316.107 651.126 287.047 617.707 287.047 576.483C287.047 535.259 316.107 501.84 351.953 501.84C387.8 501.84 416.86 535.259 416.86 576.483Z" stroke="black" stroke-width="5.048"/>
<path fill-rule="evenodd" clip-rule="evenodd" d="M363.972 574.92C363.972 581.16 358.913 586.219 352.673 586.219C346.433 586.219 341.375 581.16 341.375 574.92C341.375 568.68 346.433 563.621 352.673 563.621C358.913 563.621 363.972 568.68 363.972 574.92Z" fill="black"/>
<path fill-rule="evenodd" clip-rule="evenodd" d="M294.097 552.709C294.097 558.949 289.038 564.008 282.799 564.008C276.558 564.008 271.5 558.949 271.5 552.709C271.5 546.469 276.558 541.41 282.799 541.41C289.038 541.41 294.097 546.469 294.097 552.709Z" fill="black"/>
<path fill-rule="evenodd" clip-rule="evenodd" d="M289.203 381.688L299.624 393.685L304.139 388.28L293.82 376.125L289.203 381.688Z" fill="#A32934"/>
</svg>
