<svg id="talking" xmlns="http://www.w3.org/2000/svg" viewBox="0 0 1366.69 1173.2"><defs><style>.cls-1{fill:#d8daeb;}.cls-2{fill:#bfbfd3;}.cls-3{fill:#f9f9fa;}.cls-4{fill:#ceceda;}.cls-5{fill:#c7c5cf;}.cls-6{fill:#c6c6c6;}.cls-7{fill:#636363;}.cls-8{fill:#a0a0a0;}.cls-11,.cls-9{fill:#4c4564;}.cls-10{fill:#64668c;}.cls-11{opacity:0.24;}.cls-12{fill:#895543;}.cls-13,.cls-29,.cls-31{fill:#56362a;}.cls-13{opacity:0.56;}.cls-14,.cls-21{fill:#231611;}.cls-14{opacity:0.38;}.cls-15{fill:#1e5e60;}.cls-16{fill:#8e8a39;}.cls-17{fill:#a39c43;opacity:0.5;}.cls-18{fill:#6b1818;}.cls-19{fill:#7c1d1d;}.cls-20,.cls-32,.cls-33,.cls-45{fill:#143e41;}.cls-22{fill:#6b4434;}.cls-23{fill:#9e2525;}.cls-24{fill:#fff;}.cls-25{fill:#601717;}.cls-26,.cls-27,.cls-28{fill:#66622a;}.cls-27{opacity:0.29;}.cls-28{opacity:0.33;}.cls-29{opacity:0.48;}.cls-30{fill:#793817;}.cls-32{opacity:0.28;}.cls-33{opacity:0.4;}.cls-34,.cls-35,.cls-37{fill:#1e0e04;}.cls-34{opacity:0.42;}.cls-36,.cls-44{fill:#3d180c;}.cls-36{opacity:0.44;}.cls-37{opacity:0.77;}.cls-38{fill:#353535;}.cls-39{fill:#542411;}.cls-40{fill:#545454;}.cls-41,.cls-46,.cls-47,.cls-48{fill:#474747;}.cls-42{fill:#3a3a3a;}.cls-43{fill:#602b13;}.cls-45{opacity:0.52;}.cls-46{opacity:0.21;}.cls-47{opacity:0.43;}.cls-48{opacity:0.3;}</style></defs><ellipse class="cls-1" cx="683.35" cy="989.8" rx="612.65" ry="90.73"/><ellipse class="cls-2" cx="683.35" cy="987.58" rx="510.55" ry="49.75"/><rect class="cls-3" x="410.07" y="80.92" width="202.85" height="264.98"/><rect class="cls-3" x="727.7" y="90.97" width="267.81" height="369.83"/><path class="cls-4" d="M409.11,82.1V191a42.45,42.45,0,0,0,10.63,1.38c31.57,0,57.15-35.11,57.15-78.41A103.18,103.18,0,0,0,472,82.1Z"/><path class="cls-4" d="M790.5,174.27c-11.72-25.81-33.56-47-61.15-59.73V321a133.19,133.19,0,0,0,16.5-9,136.21,136.21,0,0,1-4.45-34.68C741.4,234.82,760.77,197.24,790.5,174.27Z"/><path class="cls-4" d="M975.91,277.29c0-69.91-52.5-126.59-117.26-126.59a111,111,0,0,0-68.15,23.57,104.85,104.85,0,0,1,9.47,43.5c0,38.77-21.34,73.09-54.12,94.2,14,53,59.19,91.9,112.8,91.9a110.22,110.22,0,0,0,58.4-16.79l38.19,16.79-11.32-39.7C963.75,341.5,975.91,310.93,975.91,277.29Z"/><path class="cls-5" d="M800,217.77a104.85,104.85,0,0,0-9.47-43.5c-29.73,23-49.1,60.55-49.1,103A136.21,136.21,0,0,0,745.85,312C778.63,290.86,800,256.54,800,217.77Z"/><path class="cls-4" d="M610.8,113.94c-42.66,19.11-71.92,58.43-71.92,103.83a104.73,104.73,0,0,0,1.85,19.58L509,262.17l42.09,4.75c12.43,23.66,33.55,43,59.7,54.69Z"/><path class="cls-6" d="M623.21,356.18H399.79V70.63H623.21ZM420.36,335.61H602.64V91.2H420.36Z"/><path class="cls-6" d="M1005.79,473.26H717.42V82.86h288.37ZM738,452.69H985.23V103.42H738Z"/><path class="cls-7" d="M1095,992.48H952.85c-22.47,0-40.75-18.49-40.75-41.23V804h223.68V951.25C1135.78,974,1117.5,992.48,1095,992.48ZM929.76,821.86V951.25a23.25,23.25,0,0,0,23.09,23.36H1095a23.25,23.25,0,0,0,23.09-23.36V821.86Z"/><path class="cls-8" d="M1172.31,992.48H1023.84c-22.44,0-40.7-18.72-40.7-41.74V801.66H1213V950.74C1213,973.76,1194.75,992.48,1172.31,992.48ZM1000.78,819.75v131c0,13,10.35,23.65,23.06,23.65h148.47c12.72,0,23.06-10.61,23.06-23.65v-131Z"/><path class="cls-9" d="M1106.76,537.46h63a0,0,0,0,1,0,0v228a0,0,0,0,1,0,0H1067.81a0,0,0,0,1,0,0V576.42A39,39,0,0,1,1106.76,537.46Z"/><path class="cls-9" d="M1170.92,765.87H1068.21V568.74a31.71,31.71,0,0,1,31.68-31.68h71Zm-101.91-.8h101.11V537.86l-68.46,20.23a70.9,70.9,0,0,0-9.31,1.31,73.1,73.1,0,0,0-23.34,9.34Z"/><path class="cls-9" d="M906.74,765.47h91.4a28.43,28.43,0,0,1,28.43,28.43v0a28.43,28.43,0,0,1-28.43,28.43h-91.4a0,0,0,0,1,0,0V765.47a0,0,0,0,1,0,0Z" transform="translate(1933.3 1587.8) rotate(-180)"/><path class="cls-9" d="M1027,822.73h-91.8a28.83,28.83,0,1,1,0-57.66H1027Zm-91.8-56.86a28,28,0,0,0,0,56.06h91V765.87Z"/><path class="cls-10" d="M1173.72,536.93a39.33,39.33,0,0,0-39.29,39.29V765.07H996.13a28.83,28.83,0,0,0,0,57.66H1213V576.22A39.33,39.33,0,0,0,1173.72,536.93Z"/><polygon class="cls-9" points="1134.43 761.53 1134.43 765.07 1130.41 765.07 1209.3 822.73 1213.01 822.73 1213.01 818.97 1134.43 761.53"/><path class="cls-11" d="M1213,822.73V767c-7.25-1.54-18.2-2.21-28.43,3.85-17.69,10.47-18.67,32.45-18.92,38.19a53.9,53.9,0,0,0,1.17,13.71H1213Z"/><path class="cls-11" d="M999.59,821.63c-.65.36-1.29.73-1.93,1.1h121.85a71.22,71.22,0,0,0-15.16-10.56c-15.37-7.94-29.36-7.9-42-7.71A133.76,133.76,0,0,0,999.59,821.63Z"/><path class="cls-11" d="M1134.43,576.22v11.2a25.1,25.1,0,0,0,21.07,1.21c11.74-4.86,14.42-17.43,14.72-18.92.24-1.26,3.1-17.12-8.06-24.52a18.89,18.89,0,0,0-8.12-3A39.32,39.32,0,0,0,1134.43,576.22Z"/><path class="cls-11" d="M1213,576.22a39.34,39.34,0,0,0-38.93-39.29,33.76,33.76,0,0,1,10.5,11.41c5.92,10.83,3.64,22.36-.7,41-8.13,34.88-9.61,35-12.26,48.71-3.94,20.31-9.12,49,5.25,72.87,3,4.94,7.51,12.27,16.47,16.47A34.68,34.68,0,0,0,1213,730Z"/><path class="cls-12" d="M793.25,608.62c1-1.4,2.85-1.27,6.47-1l2,.15c5.77.37,8.66.56,11.92.13,3.54-.47,6.2-1.53,11.51-3.63a45.2,45.2,0,0,0,4.8-2.13l-.51,0a14.26,14.26,0,0,0-3.07.1l-.55.06a39.36,39.36,0,0,1-4.24,0c-5.25-.08-7.64-.12-7.83-1.63a2.2,2.2,0,0,1,.52-1.61c1.86-2.42,9-4.32,16.54-6,.86-.2,1.51-.34,1.87-.44a66.28,66.28,0,0,1,7.1-1.74c3.51-.52,6.43-.35,12,.73a138.79,138.79,0,0,1,16.41,4.24l.59.19-.1.63c-.87,2.57-1.7,5.38-2.41,8.41-.5,2.11-.89,4.12-1.2,6-8,2.39-14.15,4.08-16.53,4.63l-2.75.63-3.84.84a69.47,69.47,0,0,0-7.52,1.92l-1.91.64a47.88,47.88,0,0,1-5.57,1.58,46.59,46.59,0,0,1-8.69,1,41,41,0,0,1-14-2.09c-6-2-8.6-4.59-9.61-5.93C793.49,612.69,792,610.31,793.25,608.62Z"/><path class="cls-13" d="M812.49,611.14a46.41,46.41,0,0,1-7.65-.31,35.14,35.14,0,0,1-3.72-.59c-1.24-.22-2.44-.55-3.65-.87s-2.51-.79-3.75-1.24a2.74,2.74,0,0,0-.47.49c-.06.07-.1.15-.15.22a24.62,24.62,0,0,0,3.73,1.89,28.77,28.77,0,0,0,7.56,1.94,31,31,0,0,0,8.06-.1,34.5,34.5,0,0,0,10.75-3.46A41.75,41.75,0,0,1,812.49,611.14Z"/><path class="cls-13" d="M812.49,616a39.73,39.73,0,0,1-7.08-.52,35.17,35.17,0,0,1-6.69-1.83,46.38,46.38,0,0,1-5.87-2.81,2.5,2.5,0,0,0,.07.26,18.42,18.42,0,0,0,5,3.86,23.55,23.55,0,0,0,3.33,1.44,28.4,28.4,0,0,0,3.58.9,29.2,29.2,0,0,0,3.75.35,30.66,30.66,0,0,0,3.82-.22c4.89-.61,11.32-3.4,12-3.7A39.44,39.44,0,0,1,812.49,616Z"/><path class="cls-12" d="M932.08,934a46.17,46.17,0,0,1-3.32-3.77,28.3,28.3,0,0,1-3.4-5.24,19.58,19.58,0,0,1-1.75-9.2c-.71.94-1.43,1.87-2.15,2.81,0,.61.11,1.21.19,1.8l-26-2.87c2,9.36,2.89,16.53,2.72,19.34-.07,1.22-.22,2.37-.22,2.37a43.15,43.15,0,0,1-1.14,5.27l-.1.41a14.45,14.45,0,0,0-.72,3.34c0,.43-.68,3.58-3.74,16.08-4,16.41-4.47,17.45-5.76,19.24-1.52,2.1-2.74,3.7-3.65,4.88a33.29,33.29,0,0,1,15.61,8.87A178,178,0,0,0,911.56,980c6.81-10.45,14-20.66,20.64-31.3,1.69-2.89,3.36-5.81,5.09-8.69A46.85,46.85,0,0,0,932.08,934Z"/><path class="cls-10" d="M920.19,984.23a15.69,15.69,0,0,1,2.95-6,15,15,0,0,1,4.56-4,44.61,44.61,0,0,0,6.87-5.29c5.85-5.39,9.08-8.36,9.37-13.58s-2.59-9.43-5.93-14.32a46.12,46.12,0,0,0-5.93-7c-.58-.58-1.12-1.13-1.64-1.69a12.1,12.1,0,0,0-1.57.9c-2.56,1.66-3.72,4.19-5.25,6.78-1.79,3-3,6.05-5.66,16.12-3.22,12.13-2.71,12.35-4.28,15.46a29,29,0,0,1-9.06,10.78,21.34,21.34,0,0,1-10.34,4.09,21.72,21.72,0,0,1-8.91-1c-2.81,3.79-4.28,5.47-4.3,5.49-.31.36-.62.7-.91,1a19.5,19.5,0,0,0-4.23,6.28c-.85,2.13-2,5-.77,7.85,2,4.37,7.82,4.6,11,4.73a29,29,0,0,0,9.67-1.29,33.12,33.12,0,0,0,7.82-3.6,40.47,40.47,0,0,0,13.29-14.08A33.36,33.36,0,0,0,920.19,984.23Z"/><path class="cls-12" d="M879.27,856.15c6.91,29.44,11.75,46.66,15.21,57.52a116.43,116.43,0,0,1,5.81,42.65,17.43,17.43,0,0,0,7.54,3.76c8,1.71,16.91-2.73,23.09-11.05-.77-1.95-1.9-5-3-8.81a113,113,0,0,1-4.23-23.66c-2.67-32.9-4.46-60.08-5.41-75"/><path class="cls-14" d="M918.26,841.53l-39,14.63c.35,1.5.71,3,1.07,4.51q1.06,4.5,2.15,9a40.51,40.51,0,0,0,22.56.14A40.07,40.07,0,0,0,919.61,862q-.54-6.33-1.07-12.65Q918.41,845.45,918.26,841.53Z"/><path class="cls-15" d="M920.19,984.23a15.69,15.69,0,0,1,2.95-6,15,15,0,0,1,4.56-4,44.61,44.61,0,0,0,6.87-5.29c5.85-5.39,9.08-8.36,9.37-13.58s-2.59-9.43-5.93-14.32a46.12,46.12,0,0,0-5.93-7c-.58-.58-1.12-1.13-1.64-1.69a12.1,12.1,0,0,0-1.57.9c-2.56,1.66-3.72,4.19-5.25,6.78-1.79,3-3,6.05-5.66,16.12-3.22,12.13-2.71,12.35-4.28,15.46a29,29,0,0,1-9.06,10.78,21.34,21.34,0,0,1-10.34,4.09,21.72,21.72,0,0,1-8.91-1c-2.81,3.79-4.28,5.47-4.3,5.49-.31.36-.62.7-.91,1a19.5,19.5,0,0,0-4.23,6.28c-.85,2.13-2,5-.77,7.85,2,4.37,7.82,4.6,11,4.73a29,29,0,0,0,9.67-1.29,33.12,33.12,0,0,0,7.82-3.6,40.47,40.47,0,0,0,13.29-14.08A33.36,33.36,0,0,0,920.19,984.23Z"/><path class="cls-12" d="M828.86,853.38c-2,30.16-2.48,48-2.36,59.44a118.46,118.46,0,0,1-1.64,22.37,115.94,115.94,0,0,1-5.34,20.1,17.55,17.55,0,0,0,6.11,5.82c7.12,4,17,2.36,25.31-3.78-.16-2.09-.34-5.34-.29-9.31a111.3,111.3,0,0,1,2.91-23.86c7.11-32.23,13.38-58.74,16.87-73.31"/><path class="cls-12" d="M856.45,943.33a49.84,49.84,0,0,1-2.06-4.58,28.43,28.43,0,0,1-1.71-6,19.32,19.32,0,0,1,1-9.31l-2.89,2c-.14.59-.25,1.19-.35,1.78l-24-10.38c-.82,9.55-2.09,16.65-3.08,19.29-.43,1.15-.9,2.2-.9,2.2a44.6,44.6,0,0,1-2.64,4.7l-.22.36a16,16,0,0,0-1.67,3c-.14.42-1.7,3.23-8.29,14.28-8.66,14.5-9.41,15.37-11.17,16.7-2.07,1.56-3.7,2.73-4.92,3.59a33.34,33.34,0,0,1,12.32,13.06,179.55,179.55,0,0,0,17.39-12.78c9.58-8,19.47-15.63,28.92-23.85,2.47-2.28,4.93-4.57,7.43-6.82A46.71,46.71,0,0,0,856.45,943.33Z"/><path class="cls-15" d="M830.34,987.82a15.69,15.69,0,0,1,4.58-4.85,15.05,15.05,0,0,1,5.54-2.49,45.27,45.27,0,0,0,8.12-3c7.18-3.43,11.13-5.32,12.95-10.23s.29-9.77-1.47-15.43a44.77,44.77,0,0,0-3.61-8.45c-.38-.73-.73-1.41-1.06-2.1a13.73,13.73,0,0,0-1.77.4c-2.93.84-4.79,2.92-7,4.94-2.59,2.35-4.63,4.91-10.14,13.74-6.64,10.66-6.22,11-8.64,13.53A29,29,0,0,1,816,981.48a21.28,21.28,0,0,1-11.08.87,21.82,21.82,0,0,1-8.23-3.57c-3.79,2.79-5.69,4-5.71,4l-1.18.71a19.49,19.49,0,0,0-5.89,4.76c-1.44,1.78-3.41,4.23-3,7.27.58,4.76,6.12,6.7,9.1,7.74a28.8,28.8,0,0,0,9.62,1.62,33.38,33.38,0,0,0,8.54-1.14A40.72,40.72,0,0,0,825,994.16,33.39,33.39,0,0,0,830.34,987.82Z"/><path class="cls-14" d="M870.43,850.85l-41.57,2.53c-.21,3.15-.41,6.16-.59,9.06a55.3,55.3,0,0,0,37.43,8.38q1.35-6.2,2.69-12.4Z"/><path class="cls-16" d="M1147.53,581.58c-1.73-25.12-2.8-40.72-2.07-55.67a85.69,85.69,0,0,0-.87-18.92,82.46,82.46,0,0,0-2.14-9.58L1007.76,475c-.59.43-1.18.88-1.77,1.36a49.93,49.93,0,0,0-9.66,10.55,61.71,61.71,0,0,0-7.72,14.91l-.1.27a51.46,51.46,0,0,1-4.23,9.06c-2,3.62-5,9.09-11.42,22.45S960.05,561.26,954,575.78c-7.5.79-15.07,1.71-22.51,2.75a664.55,664.55,0,0,0-67.79,13.12l-1.48.37.39,1.47a66.59,66.59,0,0,1,.8,28.69c-.18.9-.38,1.78-.59,2.64l-.37,1.48,1.49.34c11,2.52,22.07,4.84,33,6.92,25.89,4.93,38.61,6.19,49.35,6.19,1.33,0,2.63,0,3.92,0,11.17-.3,17.25-1.58,21.29-2.67a74,74,0,0,0,26.14-12.78,67.63,67.63,0,0,0,14.27-15.53,52.45,52.45,0,0,1,.91,7c.73,12.83-3.64,22.67-6,28a73,73,0,0,1-9.31,15.42c-74,24.31-112.59,36.43-125.07,39.29-10.19,2.33-14.11,4.52-21.92,8.88A38.48,38.48,0,0,0,838.42,717a35.18,35.18,0,0,0-5.78,10.64L805.29,844.33l1,.56c3.42,1.94,7.1,3.82,11.06,5.58a130.43,130.43,0,0,0,51.19,11h.15c27.07.25,48.38-9,57.53-13.49,1.89-.93,4.85-2.45,8.41-4.55q-4.33-37-8.66-74.08c48.47-1.1,80.46-1.34,103.57-.77.17,0,17.44.37,46.79-3.79,12.06-1.71,19.13-3.31,26.73-7.76a52.55,52.55,0,0,0,21.85-23.66c5.88-13.05,4.28-25,2.73-36.6a103.15,103.15,0,0,0-9.49-31.31c.95-.9,1.89-1.82,2.83-2.79a94.44,94.44,0,0,0,17.3-24.39c6.42-13.44,7.61-25,8.86-37.3.45-4.4.63-7.64.67-10.52C1147.84,586,1147.61,582.76,1147.53,581.58Z"/><path class="cls-17" d="M983.1,549.52a15.72,15.72,0,0,0,5.73,0c9.51-1.86,14.46-12.42,17-17.89,7.3-15.6,4.83-31.48,3-39.13C995.36,522,987.51,539,986.21,541.62c-.14.28-.75,1.5-1.45,3.2A47,47,0,0,0,983.1,549.52Z"/><path class="cls-18" d="M1148,459.17l-1.33-.85-1.19-.75h.54a18.67,18.67,0,0,0,13.77-5.7c4-4.33,5.5-10.68,4.16-17.88a21,21,0,0,0-4.09-10,27.18,27.18,0,0,0-2-2.21c-1.28-1.28-1.95-2-2-3.06-.09-1.36.84-2.52,1.65-3.54l.07-.09a95.59,95.59,0,0,0,8.3-12.17c4.19-8.07,1.36-20.91-5.52-25a11.66,11.66,0,0,0-4.17-1.37,22.55,22.55,0,0,1-6.69-2.18c-4.17-2-5-3-5-3.51,0-.26.89-.81,1.41-1.14,1.26-.8,3-1.89,3.24-4,.18-1.58-.74-2.94-2.58-5.67a31.51,31.51,0,0,0-2.24-2.95c-.58-.68-.65-.78-.73-1.17-.16-.76.06-1.2.58-2.11a7.36,7.36,0,0,0,1.19-4c-.05-3-1.89-5.05-4.45-7.95a26.9,26.9,0,0,0-3.81-3.56c-1.06-.83-1.26-1-1.37-1.57-.16-.79.14-1.32,1.06-2.61a14,14,0,0,0,2.42-4.86c1-3.82.08-8.26-2.5-12.49-3.73-6.1-9.86-8-12.48-8.8-8.27-2.55-16.37-.5-19.43.27-2.16.55-4,1.17-5.54,1.72-3.3,1.16-5,1.67-6.39.78a2.78,2.78,0,0,1-1.15-1.5,13.08,13.08,0,0,0-2.64-3.8c-3.7-3.77-7.5-5.47-10.7-4.78a7.87,7.87,0,0,0-3.06,1.5c-.85.6-1.27.87-2,.8a2.4,2.4,0,0,1-1.18-.46,8.87,8.87,0,0,0-2-.92c-2.74-.9-5.13-.28-7.25.26a22,22,0,0,0-9.83,5.76,48.68,48.68,0,0,0-11,1.52,45.39,45.39,0,0,0-20.89,11.58,41.93,41.93,0,0,0-6.84,8.89,13.59,13.59,0,0,0-6.43,2.79,14,14,0,0,0-5.21,11.44,11.8,11.8,0,0,0,.53,2.77c.25.83.31,1.09.13,1.59-.26.74-.74,1-2.08,1.73a20.26,20.26,0,0,0-3.55,2.25c-1.32,1.06-5.33,4.28-5.79,8.88-.29,2.91.93,5.21,2.79,8.7a30.46,30.46,0,0,0,2,3.3,5.51,5.51,0,0,1,1.3,2.87c.11.93.12,3.54-1.12,4.41a2.26,2.26,0,0,1-1.52.26,4.88,4.88,0,0,0-3.5,1,6.24,6.24,0,0,0-2,5.81,6.54,6.54,0,0,0,2,3.4l.66.68a2.59,2.59,0,0,1-.36.32,9.41,9.41,0,0,0-1.39,1.36,11.88,11.88,0,0,0-1.58,10.3,14.92,14.92,0,0,1,.67,3.67,12,12,0,0,1-.15,2.05l-.28,3.12c-.62,6.8-.68,8.16-.08,10.05a9.7,9.7,0,0,0,3.11,5.08,8.41,8.41,0,0,0,2.77,1.39,5.61,5.61,0,0,1,2.27,1.19,4.25,4.25,0,0,1,1.68,2.29c.08.5,0,.74-.61,1.67a13.36,13.36,0,0,0-1.68,3.66,9.37,9.37,0,0,0-.09,6.2,6.5,6.5,0,0,0,1.18,1.88,7.21,7.21,0,0,1,1.18,1.84,4.85,4.85,0,0,1,.74,2.57,3.77,3.77,0,0,1-1.2,2.32,2.84,2.84,0,0,1-1.91.54,7.37,7.37,0,0,0-3.55.91,8.43,8.43,0,0,0-3.58,4.27c-1.51,4,.75,7.81,1.79,9.26,1.23,1.71,3.79,4.55,7.23,4.55h.13a6.74,6.74,0,0,0,2.57-.62,8.1,8.1,0,0,1,2.87-.69,6.48,6.48,0,0,1,2.26.18c1.22.5,1.79,2.83,1.43,5.59"/><path class="cls-19" d="M1146.05,457.58a22.2,22.2,0,0,1-5.14-.61,43.71,43.71,0,0,0,9.58-3c3.63-1.6,5.46-2.38,7.13-4.19,3.41-3.67,4.58-8.95,3.41-15.28a18.28,18.28,0,0,0-3.48-8.65,23.31,23.31,0,0,0-1.81-2c-1.41-1.42-2.73-2.75-2.88-5-.17-2.5,1.31-4.37,2.29-5.6l.07-.08a95.28,95.28,0,0,0,8-11.69c3.41-6.59,1.08-17.77-4.38-21a8.84,8.84,0,0,0-3.19-1,25.59,25.59,0,0,1-7.47-2.43c-2.72-1.33-6.83-3.34-6.66-6.38.11-1.8,1.6-2.75,2.81-3.51s1.78-1.17,1.86-1.82c0-.47-.94-1.94-2.09-3.64a28.73,28.73,0,0,0-2-2.7,5,5,0,0,1-1.38-2.49,5.53,5.53,0,0,1,.91-4.2,4.41,4.41,0,0,0,.8-2.48c0-1.78-1.22-3.21-3.69-6a24.26,24.26,0,0,0-3.42-3.19,5.45,5.45,0,0,1-2.46-3.31c-.44-2.15.57-3.58,1.55-5a31.06,31.06,0,0,0,2-3.86c.92-1.79,1.57-5.1.41-11.75,2.58,4.23,3.47,8.67,2.5,12.49a14,14,0,0,1-2.42,4.86c-.92,1.29-1.22,1.82-1.06,2.61.11.55.31.74,1.37,1.57a26.9,26.9,0,0,1,3.81,3.56c2.56,2.9,4.4,5,4.45,7.95a7.36,7.36,0,0,1-1.19,4c-.52.91-.74,1.35-.58,2.11.08.39.15.49.73,1.17a31.51,31.51,0,0,1,2.24,2.95c1.84,2.73,2.76,4.09,2.58,5.67-.25,2.12-2,3.21-3.24,4-.52.33-1.4.88-1.41,1.14,0,.48.81,1.48,5,3.51a22.55,22.55,0,0,0,6.69,2.18,11.66,11.66,0,0,1,4.17,1.37c6.88,4.05,9.71,16.89,5.52,25a95.59,95.59,0,0,1-8.3,12.17l-.07.09c-.81,1-1.74,2.18-1.65,3.54.07,1.06.74,1.78,2,3.06a27.18,27.18,0,0,1,2,2.21,21,21,0,0,1,4.09,10c1.34,7.2-.14,13.55-4.16,17.88A18.67,18.67,0,0,1,1146.05,457.58Z"/><path class="cls-19" d="M1124,447.93l-1-.71-.92-.63h.42a13.91,13.91,0,0,0,10.67-4.8c3.11-3.64,4.25-9,3.22-15a18.76,18.76,0,0,0-3.17-8.39,21.74,21.74,0,0,0-1.56-1.85c-1-1.08-1.51-1.69-1.57-2.58a4.82,4.82,0,0,1,1.28-3l.05-.07a80.51,80.51,0,0,0,6.43-10.23c3.25-6.8,1.05-17.59-4.27-21a8.36,8.36,0,0,0-3.23-1.15,16.62,16.62,0,0,1-5.19-1.83c-3.23-1.71-3.88-2.55-3.86-3,0-.22.69-.68,1.1-1a4.78,4.78,0,0,0,2.5-3.37c.15-1.33-.57-2.48-2-4.77a24.69,24.69,0,0,0-1.74-2.48c-.44-.58-.5-.66-.56-1a2.39,2.39,0,0,1,.45-1.78A6.48,6.48,0,0,0,1122,356c0-2.5-1.47-4.25-3.44-6.69a21.1,21.1,0,0,0-3-3c-.82-.7-1-.87-1.06-1.32-.13-.67.11-1.11.82-2.2a12,12,0,0,0,1.87-4.09,14.81,14.81,0,0,0-1.93-10.51,16.31,16.31,0,0,0-9.67-7.4c-6.4-2.14-12.68-.42-15,.23-1.68.46-3.07,1-4.29,1.45-2.56,1-3.84,1.41-5,.66a2.39,2.39,0,0,1-.89-1.27,10.74,10.74,0,0,0-2-3.19c-2.87-3.18-5.81-4.6-8.29-4a6.05,6.05,0,0,0-2.37,1.25c-.66.51-1,.74-1.57.68a1.7,1.7,0,0,1-.91-.38,6.66,6.66,0,0,0-1.53-.78,8.69,8.69,0,0,0-5.61.22,16.86,16.86,0,0,0-7.62,4.85,35.24,35.24,0,0,0-24.68,11,35.39,35.39,0,0,0-5.3,7.48,10.1,10.1,0,0,0-5,2.35,12.25,12.25,0,0,0-4,9.62,10.11,10.11,0,0,0,.42,2.33,2.05,2.05,0,0,1,.1,1.33c-.21.63-.58.86-1.62,1.46a15.88,15.88,0,0,0-2.75,1.89c-1,.9-4.13,3.61-4.48,7.47-.23,2.45.72,4.39,2.15,7.32a27.16,27.16,0,0,0,1.57,2.77,4.89,4.89,0,0,1,1,2.42c.09.78.1,3-.87,3.71-.3.24-.6.24-1.18.22a3.55,3.55,0,0,0-2.71.81,5.39,5.39,0,0,0,0,7.74l.51.57a2.49,2.49,0,0,1-.28.27,7.38,7.38,0,0,0-1.08,1.15,10.74,10.74,0,0,0-1.22,8.66,13.4,13.4,0,0,1,.51,3.09,9.85,9.85,0,0,1-.11,1.72l-.22,2.63c-.48,5.72-.52,6.86-.06,8.45a8.3,8.3,0,0,0,2.41,4.27,6.17,6.17,0,0,0,2.15,1.17,4.24,4.24,0,0,1,1.76,1,3.63,3.63,0,0,1,1.3,1.93c.06.42,0,.62-.48,1.4a11.34,11.34,0,0,0-1.29,3.09,8.48,8.48,0,0,0-.08,5.21,5.57,5.57,0,0,0,.92,1.58,6.12,6.12,0,0,1,.91,1.54,4.26,4.26,0,0,1,.57,2.16,3.21,3.21,0,0,1-.93,2,2.06,2.06,0,0,1-1.47.45,5.42,5.42,0,0,0-2.76.77,7,7,0,0,0-2.77,3.59c-1.17,3.36.58,6.57,1.39,7.79,1,1.44,2.93,3.83,5.6,3.83h.1a4.83,4.83,0,0,0,2-.53,6.23,6.23,0,0,1,2.23-.58,3.05,3.05,0,0,1,1.75.15c.89.54,1,2.22.52,3.37-.32.7-.73.81-1,1.22-1.08,1.67,2,5.92,3.63,7.27,6.71,5.46,24.18-6.22,25.31-7"/><path class="cls-20" d="M1185.69,504.34c-4.39-9.67-14.55-28-33.34-42.17-2.18-1.64-3.41-2.43-5.65-3.85-2.69-1.7-7.19-4.56-17.1-11.32-16.23-11.08-22.77-16.1-27.13-25a41.18,41.18,0,0,1-3.9-13.69l-.16-1.45-16.61,1.3-8,48,1.45.26c14,2.52,40.27,9.92,59.28,31.28a83.83,83.83,0,0,1,15.53,24.54,86.43,86.43,0,0,1,6,32,89.51,89.51,0,0,1-7.71,36.16,93.34,93.34,0,0,0,45.53-15.67l.57-.38.09-.68A111.75,111.75,0,0,0,1185.69,504.34Z"/><path class="cls-15" d="M1185.69,504.34c-4.39-9.67-14.55-28-33.34-42.17-2.18-1.64-3.41-2.43-5.65-3.85-2.69-1.7-7.19-4.56-17.1-11.32-16.23-11.08-22.77-16.1-27.13-25a41.18,41.18,0,0,1-3.9-13.69l-.16-1.45-16.61,1.3-.19,1.12,9.8-.8.15,1.51a45,45,0,0,0,3.9,14.35c4.36,9.34,10.91,14.61,27.14,26.22,9.91,7.08,14.41,10.08,17.1,11.87,2.24,1.49,3.47,2.31,5.65,4,18.78,14.84,29,34.06,33.33,44.2a121.44,121.44,0,0,1,9.28,57.7c2-1.15,4-2.36,5.92-3.66l.57-.38.09-.68A111.75,111.75,0,0,0,1185.69,504.34Z"/><path class="cls-16" d="M1035,463.17c-.82.35-2,.85-3.55,1.43a128.5,128.5,0,0,1-12.32,4c-3.86,1.11-9.35,3.74-16.32,10.47l27.88.11Q1032.87,471.2,1035,463.17Z"/><path class="cls-12" d="M1095.28,458.8a25.73,25.73,0,0,1-2.33-2.57,26.13,26.13,0,0,1-2-3,30.75,30.75,0,0,1-2.5-5.27c-1.23-3.36-2.24-7.89-1.37-18.12a114.71,114.71,0,0,1,3.7-20.64l-2.9-.79c-.17.63-.33,1.27-.49,1.9l-41.8,32.35-1.5.14a43.1,43.1,0,0,1,0,7.87c-.35,3.89-.52,5.66-1.51,7.17-1.64,2.5-4.63,3.92-7.52,5.28-.78.37-1.59.71-2.39,1l-.63.24-.25.62a229.17,229.17,0,0,0-15.78,82.4l0,3.2,2.48-2c8.75-7.2,17.34-14.71,25.52-22.31,17.47-16.24,30.1-28,41.27-46a155.21,155.21,0,0,0,10.39-19.82l.41-1Z"/><path class="cls-14" d="M1044.09,443.32a42.54,42.54,0,0,1,0,7.4c-.06.65-.11,1.22-.16,1.75a47.68,47.68,0,0,0,32.19-22.36,55.93,55.93,0,0,1-32,13.21Z"/><path class="cls-12" d="M1106.45,386.2a78.36,78.36,0,0,0,1-27.34c-1-6.9-2.45-17.32-9.7-27.84-1.43-2.07-14.62-20.33-37.57-23a49,49,0,0,0-18,1.21,45.39,45.39,0,0,0-20.89,11.58c-10.3,10.22-12.54,22.77-13,29.33-.32,4.92-.61,10-.88,15-.24,4.56-.31,6.7.32,9.7a17.14,17.14,0,0,0,1.82,4.94,21.61,21.61,0,0,1,1.71,4.07c.86,2.73,1.13,6.13,1.68,12.91.22,2.72.31,4.39.37,5.6a20,20,0,0,0,.54,4.37c.82,3.44,2.13,6,4.49,10.53a62.44,62.44,0,0,0,3.67,6.31,48.09,48.09,0,0,1,3.17,5.46c.33.65.64,1.27.93,1.87a35.08,35.08,0,0,0,5.24,8.33,26.82,26.82,0,0,0,3.41,3.4,13.44,13.44,0,0,0,8.45,2.59c4.22,0,8.63-1.3,12.26-2.37l.41-.12a56.78,56.78,0,0,0,16.83-8.28,45.19,45.19,0,0,0,9.22-7.77,40.42,40.42,0,0,0,8.46-16,12.34,12.34,0,0,0,5.28-.13c5.74-1.43,8.39-6.61,9.81-9.39,1.25-2.44,3.57-7,2.07-12.12A14.34,14.34,0,0,0,1106.45,386.2Z"/><path class="cls-19" d="M1094.51,314.27a6.89,6.89,0,0,1-1.71-.24,6.07,6.07,0,0,1-1.49-.66,5.76,5.76,0,0,1-2.28-2.75,9.77,9.77,0,0,0-2.07-3c-2.91-3-5.8-4.41-7.92-3.94a5.14,5.14,0,0,0-2,1,5.62,5.62,0,0,1-4,1.35,5.17,5.17,0,0,1-2.47-.87,6.06,6.06,0,0,0-1.37-.65c-1.9-.63-3.68-.17-5.55.32a19.28,19.28,0,0,0-8.9,5.4l-2.16-2.08a22.32,22.32,0,0,1,10.3-6.23c2.12-.54,4.51-1.16,7.25-.26a8.87,8.87,0,0,1,2,.92,2.4,2.4,0,0,0,1.18.46c.76.07,1.18-.2,2-.81a8,8,0,0,1,3.06-1.49c3.2-.69,7,1,10.7,4.78a13.08,13.08,0,0,1,2.64,3.8,2.78,2.78,0,0,0,1.15,1.5c1.44.89,3.09.38,6.39-.78,1.58-.55,3.38-1.17,5.54-1.72,3.06-.77,11.16-2.82,19.43-.27-8-1.46-13-.05-16.29,1.65C1108,309.69,1099.24,314.25,1094.51,314.27Z"/><path class="cls-20" d="M1107.4,358.86c-1-6.9-2.45-17.32-9.7-27.84-1.43-2.07-14.62-20.33-37.57-23a49,49,0,0,0-18,1.21,45.39,45.39,0,0,0-20.89,11.58c-10.3,10.22-12.54,22.77-13,29.33a34.3,34.3,0,0,1,14.8-14.77c7.18-3.59,13.69-3.51,17.89-3.38a48.12,48.12,0,0,1,23.79,7.41,56.63,56.63,0,0,1,18.1,17.68,66.36,66.36,0,0,1,10.8,28.25,14.59,14.59,0,0,1,6.88-1,14.37,14.37,0,0,1,6,2l-.07-.14A78.36,78.36,0,0,0,1107.4,358.86Z"/><path class="cls-15" d="M1107.4,358.86c-1-6.9-2.45-17.32-9.7-27.84-1.43-2.07-14.62-20.33-37.57-23a49,49,0,0,0-18,1.21,45.39,45.39,0,0,0-20.89,11.58c-1,1-1.84,1.94-2.67,2.93a46.4,46.4,0,0,1,18-9,49.3,49.3,0,0,1,18-1.2c23,2.71,36.14,21,37.57,23,7.25,10.51,8.73,20.94,9.71,27.84a78.4,78.4,0,0,1,.22,20.13,14.48,14.48,0,0,1,4.5,1.79l-.07-.14A78.36,78.36,0,0,0,1107.4,358.86Z"/><path class="cls-18" d="M1036.39,371.11c.32.52,1.57.37,3.71.11a20.06,20.06,0,0,0,2.4-.44c2.5-.61,3.31-1.14,5.24-1.74a16.72,16.72,0,0,1,5.23-1c2.27,0,3.3.66,5.46,1.2a20.92,20.92,0,0,0,6.22.61.6.6,0,0,0,.25-1.13c-1.53-.83-2.88-1.49-4-2a40.09,40.09,0,0,0-4.26-1.75,17.87,17.87,0,0,0-5.23-1.31c-1.66-.06-1.8.33-6.77,1.53-3.3.79-3.66.72-4.69,1.31C1037.65,367.86,1035.89,370.29,1036.39,371.11Z"/><path class="cls-18" d="M1019.37,371.27a13.31,13.31,0,0,0-3.54-1.42,14.25,14.25,0,0,0-3.38-.32,15.12,15.12,0,0,0-5.21,1.05,21.45,21.45,0,0,0,.45,4,20.33,20.33,0,0,1,4.27-.89,23,23,0,0,1,3.32-.06c1.52.08,1.88.24,3.77.38,2.37.19,3.56.29,3.71-.1C1023,373.25,1019.78,371.5,1019.37,371.27Z"/><path class="cls-14" d="M1101,389.63c-.84,1.44-1.6,2.63-2.28,3.84s-1.31,2.37-1.87,3.59-1.1,2.46-1.62,3.82-1,2.79-1.64,4.45a12.52,12.52,0,0,1-.62-5.39,14.86,14.86,0,0,1,1.38-5.2,10.76,10.76,0,0,1,2.87-3.81A5.16,5.16,0,0,1,1101,389.63Z"/><path class="cls-14" d="M1028.68,380.31a13.15,13.15,0,0,1,3,4.68,18.36,18.36,0,0,1,.81,2.72,8.49,8.49,0,0,1,0,3.06,8.12,8.12,0,0,1-1.15,2.92,26.67,26.67,0,0,1-1.65,2.3c-.55.71-1.16,1.45-1.74,2.13a5.58,5.58,0,0,0-1.19,1.71,2.9,2.9,0,0,0,0,1.7,2.32,2.32,0,0,0,1,1.27,11.16,11.16,0,0,0,4.55,1.2,22.27,22.27,0,0,0,10.28-1.44,16.34,16.34,0,0,1-10.38,3.78,16.68,16.68,0,0,1-2.88-.14,8.39,8.39,0,0,1-3-.95,5.13,5.13,0,0,1-2.38-2.76,5.78,5.78,0,0,1-.06-3.61,5.86,5.86,0,0,1,.87-1.59,14.44,14.44,0,0,1,1-1.13c.62-.66,1.17-1.3,1.77-2s1.16-1.33,1.65-2a6.19,6.19,0,0,0,1.06-2,10.38,10.38,0,0,0,0-4.87A18.36,18.36,0,0,0,1028.68,380.31Z"/><path class="cls-21" d="M1044.14,384.09a5.88,5.88,0,0,1-.39-3.1,5,5,0,0,1,1.54-2.95,6.73,6.73,0,0,1,3-1.53,13,13,0,0,1,3.19-.36,12.14,12.14,0,0,1,6.22,1.71,15.94,15.94,0,0,1,4.68,4.19l-.64-.17c1.61-.39,3.23-.71,4.88-.95q-2.22,1.15-4.5,2.1l-.32.13-.33-.3a20.44,20.44,0,0,0-4.68-3.34,12.29,12.29,0,0,0-5.32-1.43,8.9,8.9,0,0,0-5.29,1C1044.69,380.07,1044,382.06,1044.14,384.09Z"/><path class="cls-21" d="M1026.14,388.45a15.71,15.71,0,0,0-2.77-3.26,12.12,12.12,0,0,0-3.48-2,6.67,6.67,0,0,0-3.71-.49,5,5,0,0,0-3,2.52,4.62,4.62,0,0,1,.59-2.28,4.18,4.18,0,0,1,1.89-1.7,6.47,6.47,0,0,1,5,.08,9.14,9.14,0,0,1,3.89,2.78A7.48,7.48,0,0,1,1026.14,388.45Z"/><path class="cls-21" d="M1052.65,377.44a6.75,6.75,0,0,1,3.11,4.14,5.62,5.62,0,0,1-.88,4.86,5.36,5.36,0,0,1-4.25,1.85,5.72,5.72,0,0,1-4.26-2.78,7.06,7.06,0,0,1-1-4.42,7.91,7.91,0,0,1,.76-3"/><path class="cls-21" d="M1021.37,383.22a7.17,7.17,0,0,1,1.25,2.56,5.84,5.84,0,0,1,.15,2.84,4.4,4.4,0,0,1-1.5,2.56,3.82,3.82,0,0,1-3.36.55,5.29,5.29,0,0,1-3.15-3.33,7,7,0,0,1,.75-5.73,4.85,4.85,0,0,1,2.75-.76A5,5,0,0,1,1021.37,383.22Z"/><path class="cls-22" d="M1026.57,417c.91-.17,1.82-.32,2.73-.43h-.08a34.88,34.88,0,0,1,13.37-1.9c1.12.07,2.19.12,3.28.15s2.17,0,3.26,0c2.19-.08,4.38-.29,6.63-.53a25.14,25.14,0,0,1-6.47,2,30.32,30.32,0,0,1-6.78.39c-2.19-.07-4.35,0-6.54.09s-4.37.34-6.58.58h-.08C1028.4,417.23,1027.49,417.12,1026.57,417Z"/><path class="cls-22" d="M1028.7,416.87c1,.47,1.76,1,2.62,1.5a15.91,15.91,0,0,0,2.4,1.25,5.94,5.94,0,0,0,2.19.34,11.66,11.66,0,0,0,2.48-.34A21,21,0,0,0,1041,419a23.72,23.72,0,0,0,2.54-.92,53.29,53.29,0,0,0,5.19-2.59l.16.12a17.77,17.77,0,0,1-4.51,3.81,16.28,16.28,0,0,1-5.57,2.14,11.33,11.33,0,0,1-3,.27,6.65,6.65,0,0,1-2.9-.86,20.47,20.47,0,0,1-4.36-4Z"/><path class="cls-23" d="M1056,414.53a75,75,0,0,1-7.87-.64c-2.31-.32-3.41-.59-6.07-.83a20.53,20.53,0,0,0-6.25,0,12,12,0,0,0-4.83,2,13.28,13.28,0,0,0-2.19,2.09,13,13,0,0,0-1.22,1.68c.37.54.94,1.37,1.57,2.43a32.14,32.14,0,0,0,1.79,3.11,9.94,9.94,0,0,0,4.23,2.94,12.21,12.21,0,0,0,4,.72,13.59,13.59,0,0,0,6.37-1.49,12.81,12.81,0,0,0,5.27-4.89c.94-1.62.78-2.33,2-4.07a14.17,14.17,0,0,1,2.87-3"/><path class="cls-24" d="M1050,416a17.47,17.47,0,0,1-7,4.61,15.08,15.08,0,0,1-8.18,1,12.41,12.41,0,0,1-5.42-2.49,61.36,61.36,0,0,1,7.29-1.89A64.62,64.62,0,0,1,1050,416Z"/><path class="cls-25" d="M1026.45,419c1-.22,1.91-.43,2.88-.6l-.09,0a43.16,43.16,0,0,1,14.13-2.71c1.19,0,2.34-.06,3.5-.11s2.32-.16,3.48-.27c2.33-.23,4.65-.59,7-1a30.42,30.42,0,0,1-6.76,2.29,38.24,38.24,0,0,1-7.2.85c-2.34.1-4.64.29-7,.56s-4.64.64-7,1l-.08,0C1028.41,419.07,1027.43,419,1026.45,419Z"/><path class="cls-25" d="M1028.71,418.72c1.08.35,1.94.78,2.88,1.16a17.57,17.57,0,0,0,2.64,1,7,7,0,0,0,2.36.15,13.77,13.77,0,0,0,2.61-.49,25.5,25.5,0,0,0,2.76-.75c.9-.27,1.72-.64,2.65-1A58.15,58.15,0,0,0,1050,416l.17.1a18.42,18.42,0,0,1-4.56,3.8,19.54,19.54,0,0,1-5.81,2.35,14.71,14.71,0,0,1-3.19.47,8.09,8.09,0,0,1-3.15-.57,21.15,21.15,0,0,1-4.9-3.3Z"/><path class="cls-26" d="M984.68,674.71l-2.95-.48a362,362,0,0,1,35.14-27.92c7.82-5.43,15.35-11.32,23.45-16.33a182.8,182.8,0,0,0,18.36-13.71,29.39,29.39,0,0,0,5.72-6,29.09,29.09,0,0,0,4.81-14l0-.12a334.57,334.57,0,0,1,8.47-43.27c4.06-15.58,7.72-23.07,8.8-25.37a124.44,124.44,0,0,1,16.78-26.43,210.8,210.8,0,0,0-14,27.59,177.5,177.5,0,0,0-8.66,25,330.61,330.61,0,0,0-8.4,42.84v.12a31.94,31.94,0,0,1-5.34,15.42l-.3.41a31.54,31.54,0,0,1-5.91,6.11c-5.75,4.56-19.65,13.32-28.22,19.89L1030,640.3c-1.9,1.44-4,3-11.29,8.4C1012.72,653.13,1002.66,660.74,984.68,674.71Z"/><path class="cls-12" d="M985.44,675.62q-9.63,2.77-19.59,5.93-7.71,2.43-15.13,4.94a138.13,138.13,0,0,0-23,20.45,2.77,2.77,0,0,0,1.74,4.61,13.7,13.7,0,0,0,4.66.25c7.4-.89,7.11-.82,7.34-.87a47.49,47.49,0,0,0,13.64-5.55,59.86,59.86,0,0,0,40.11-11.91"/><path class="cls-16" d="M1143.14,512.43l2.25,15a71.73,71.73,0,0,0,.09-20.06c-.9-6.56-1.76-12.8-6.2-19.13a32.68,32.68,0,0,0-8.8-8.5l-.17-.1c-6.85-4.06-16.55-9.47-21.48-12.34-3.26-1.9-7.95-4.73-13.54-8.49a36.94,36.94,0,0,1-1,3.73,49,49,0,0,1-2,5.14c-1.19,2.48-7,12.1-15.49,24.8Z"/><path class="cls-26" d="M1071.68,688a208.13,208.13,0,0,1-74.29,10.6,36.74,36.74,0,0,0-.92-6.12,41.06,41.06,0,0,0-2.35-6.89,45.75,45.75,0,0,0-9.38-13.2l-3,1.85a38.23,38.23,0,0,1,9.66,12.59,36.84,36.84,0,0,1,2.13,6.19,35.38,35.38,0,0,1,.94,7l0,1.39,1.38.07q5.58.29,11.11.28a197.4,197.4,0,0,0,65.68-11c12.56-4.42,29.46-10.36,45.15-25.08A206.47,206.47,0,0,1,1071.68,688Z"/><path class="cls-26" d="M996.26,660.66a73.31,73.31,0,0,0,10.54-17c2.35-5.29,6.72-15.13,6-28a55.43,55.43,0,0,0-3.83-17,56.06,56.06,0,0,0-5.84-11,34.13,34.13,0,0,1-7.18-4.08,37.33,37.33,0,0,1-8.81-9.55c-2.06-3.18-6.9-10.6-6.49-19.8.23-5.14,2-8.65,4.73-14l.09-.17c3.22-6.32,6.42-12.78,9.53-19q2.85-5.76,5.73-11.51a190.86,190.86,0,0,0,10.68-26,102.6,102.6,0,0,1-8,27.33c-.91,2-1.63,3.23-5.74,11.5-3.1,6.25-6.31,12.72-9.54,19.05l-.09.17c-2.71,5.32-4.2,8.25-4.4,12.74-.37,8.24,4.1,15.1,6,18a34.32,34.32,0,0,0,8.07,8.78,31.89,31.89,0,0,0,6.94,3.88l.42.17.25.37a59.23,59.23,0,0,1,6.42,11.94,58.24,58.24,0,0,1,4,17.92,53.73,53.73,0,0,1-6.23,29.35A52.55,52.55,0,0,1,996.26,660.66Z"/><path class="cls-27" d="M1027.08,570.42a53.39,53.39,0,0,0,8.88,11.05,42.36,42.36,0,0,0,10.18,7.57,39.49,39.49,0,0,0,19.49,4.21,72.54,72.54,0,0,1-16.44,3.79c-8.54.93-11.56-.32-12.94-1a17.16,17.16,0,0,1-6.84-6.69C1024.58,581.5,1026.48,572.81,1027.08,570.42Z"/><path class="cls-27" d="M915.52,597.91a49.5,49.5,0,0,0,14.84-6.55,66,66,0,0,0,16.69-14.79c-5.21.6-10.43,1.24-15.59,2-18.67,2.61-37.41,6.07-55.88,10.3a42.71,42.71,0,0,0,9.83,6.46C899.11,601.76,912,598.78,915.52,597.91Z"/><path class="cls-27" d="M1012.4,611.87c.55-.8,1.15-1.56,1.77-2.31a39.44,39.44,0,0,1-2.88-10.66,38.67,38.67,0,0,1-6-12.08,174,174,0,0,1-13.86,13.27c-8.05,6.88-14.44,12.35-24,16.58-8.62,3.82-15.5,4.58-29.24,6.11-20.57,2.29-37.11,1.26-49.31.44-9.81-.66-18-1.6-23.73-2.36l-2.25,3.37c0,.19-.08.4-.13.59l-.37,1.48,1.49.34c11,2.52,22.07,4.84,33,6.92,25.89,4.93,38.61,6.19,49.35,6.19,1.33,0,2.63,0,3.92,0,11.17-.3,17.25-1.58,21.29-2.67a74,74,0,0,0,26.14-12.78,67.63,67.63,0,0,0,14.27-15.53C1012.1,609.84,1012.26,610.88,1012.4,611.87Z"/><path class="cls-28" d="M1121,662.66a94.44,94.44,0,0,0,17.3-24.39c6.42-13.44,7.61-25,8.86-37.3.45-4.4.63-7.64.67-10.52,0-4.41-.18-7.69-.26-8.87-.8-11.62-1.46-21.19-1.86-29.62-4.21,30.84-11,53.55-16.33,68.2-3.58,9.91-7.32,18.54-14.4,27.49-10,12.71-22,20.08-37.53,27.5-17.37,8.29-45,19.4-82.76,26.76a151.25,151.25,0,0,0,66.61,4.65c11.36-1.79,39.12-6.25,63.55-23.4a104.35,104.35,0,0,0-6.68-17.71C1119.08,664.55,1120,663.63,1121,662.66Z"/><path class="cls-28" d="M858.57,740.16q.9,60.48,1.79,120.94c2.85.21,5.57.32,8.16.36h.15a126.91,126.91,0,0,0,12.74-.66Q870,800.49,858.57,740.16Z"/><path class="cls-18" d="M1051.64,333.56a18.29,18.29,0,0,0,2.79,10.39,19.12,19.12,0,0,0,8.14,6.85,20.74,20.74,0,0,0,8.29,2.33c2.15.11,2.43-.25,3.64.14,2.69.87,4.58,3.68,5.24,6.26.52,2.05-.15,2.34-.58,8.43-.39,5.34,0,6.26.29,6.69,1,1.9,2.34,1.69,4.65,4.66a8.25,8.25,0,0,1,2,3.78,7,7,0,0,1-1.17,5.09c-1.36,1.79-2.61,1.23-3.78,2.91a6.21,6.21,0,0,0-.43,5.67,5.46,5.46,0,0,0,2.61,3.06c2.55,1.22,5.7-.23,5.68-.87s-3-.5-3.35-1.75c-.17-.69.57-1.41,1.89-2.62,2.54-2.32,4.24-3.69,4.66-4.07,1.54-1.4,2.66-4.62.43-12.8-4.64-17-13.66-26.62-13.66-26.62A63.52,63.52,0,0,0,1051.64,333.56Z"/><path class="cls-29" d="M952.5,700.9a59.41,59.41,0,0,1,5.89-2.54c1.48-.55,2.91-1,4.26-1.4-1.37-.1-2.72-.09-4.07-.08h-.41c-.94,0-3,.29-7.82,2.17-.67.42-1.55,1-2.56,1.66-2.58,1.71-4.49,3.13-5.26,3.7-1.72,1.29-3.4,2.62-5,4-1.27,1.09-2.51,2.21-3.71,3.4l.36,0,1.4-.17c1-.5,2.05-1,3.06-1.59.7-.38,2.74-1.5,5.54-3.29C946.28,705.39,949.15,703.45,952.5,700.9Z"/><path class="cls-29" d="M951,692.9c-1,.27-1.9.54-2.83.85s-1.88.58-2.8.91l-.14.05-.22.16q-5.24,4-10.08,8.46c-1.62,1.49-3.19,3-4.73,4.6-.85.87-1.67,1.76-2.48,2.68a2.56,2.56,0,0,0,.81.64c1-.61,1.93-1.25,2.87-1.91,1.81-1.25,3.58-2.56,5.31-3.9q5.13-4,9.89-8.47c.8-.37,1.6-.77,2.4-1.15s1.76-.88,2.63-1.34c1.74-.92,3.46-1.88,5.14-3C954.79,691.87,952.88,692.36,951,692.9Z"/><path class="cls-7" d="M237.44,954.25V807H461.12V954.25c0,22.74-18.29,41.23-40.76,41.23H278.19C255.72,995.48,237.44,977,237.44,954.25ZM255.1,824.86V954.25a23.25,23.25,0,0,0,23.09,23.36H420.36a23.25,23.25,0,0,0,23.09-23.36V824.86Z"/><path class="cls-8" d="M160.2,953.74V804.66H390.07V953.74c0,23-18.26,41.74-40.7,41.74H200.9C178.46,995.48,160.2,976.76,160.2,953.74Zm17.64-131v131c0,13,10.35,23.65,23.06,23.65H349.37c12.72,0,23.06-10.61,23.06-23.65v-131Z"/><path class="cls-9" d="M203.5,540.46H305.41a0,0,0,0,1,0,0v228a0,0,0,0,1,0,0h-63a39,39,0,0,1-39-39V540.46A0,0,0,0,1,203.5,540.46Z" transform="translate(508.9 1308.93) rotate(-180)"/><path class="cls-9" d="M202.29,540.06h71A31.72,31.72,0,0,1,305,571.74V768.87H202.29ZM304.2,571.74a73,73,0,0,0-23.34-9.34,70.76,70.76,0,0,0-9.3-1.31L203.1,540.86V768.07H304.2Z"/><path class="cls-9" d="M346.65,768.47H438a28.43,28.43,0,0,1,28.43,28.43v0A28.43,28.43,0,0,1,438,825.33h-91.4a0,0,0,0,1,0,0V768.47A0,0,0,0,1,346.65,768.47Z"/><path class="cls-9" d="M346.25,768.07h91.8a28.83,28.83,0,0,1,0,57.66h-91.8Zm.8.8v56.06h91a28,28,0,0,0,0-56.06Z"/><path class="cls-10" d="M199.49,539.93a39.34,39.34,0,0,1,39.3,39.29V768.07H377.08a28.83,28.83,0,1,1,0,57.66H160.2V579.22A39.33,39.33,0,0,1,199.49,539.93Z"/><polygon class="cls-9" points="238.79 764.53 238.79 768.07 242.8 768.07 163.92 825.73 160.2 825.73 160.2 821.97 238.79 764.53"/><path class="cls-11" d="M160.2,825.73V770c7.26-1.54,18.21-2.21,28.43,3.85,17.7,10.47,18.67,32.45,18.92,38.19a53.45,53.45,0,0,1-1.17,13.71H160.2Z"/><path class="cls-11" d="M373.63,824.63c.65.36,1.29.73,1.92,1.1H253.7a71.31,71.31,0,0,1,15.17-10.56c15.37-7.94,29.35-7.9,42-7.71A133.79,133.79,0,0,1,373.63,824.63Z"/><path class="cls-11" d="M238.79,579.22v11.2a25.12,25.12,0,0,1-21.08,1.21C206,586.77,203.29,574.2,203,572.71c-.25-1.26-3.1-17.12,8.06-24.52a18.85,18.85,0,0,1,8.11-3A39.3,39.3,0,0,1,238.79,579.22Z"/><path class="cls-11" d="M160.2,579.22a39.34,39.34,0,0,1,38.93-39.29,33.76,33.76,0,0,0-10.5,11.41c-5.92,10.83-3.64,22.36.7,41,8.13,34.88,9.61,35,12.27,48.71,3.94,20.31,9.11,49-5.26,72.87-3,4.94-7.51,12.27-16.47,16.47A34.66,34.66,0,0,1,160.2,733Z"/><path class="cls-30" d="M519.54,506a55.94,55.94,0,0,1,6.58-17.42c2.63-4.49,5.06-8.64,9.87-12.17,5.77-4.24,8.26-2.67,14.15-7.24,2.8-2.18,2.06-2.39,8.89-9.87,5.12-5.62,7.75-8.47,11.18-10.86a48.45,48.45,0,0,1,11.08-5.6c3.94-1.54,5.91-2.31,6.7-1.64,2,1.69-2.3,8.85-7.57,21.71-1.55,3.78-2.83,7.19-3.87,10.09a16.79,16.79,0,0,1-6.1,8.1q-6.66,4.71-14.06,10.44c-5.45,4.25-9.66,7.78-11.84,13.83a23,23,0,0,0-1.17,4.85"/><path class="cls-30" d="M522,497.25c1.13-11.4,5.27-18.61,7.89-22.34,1.65-2.35,5.92-6.34,14.45-14.32,7.67-7.17,9.48-8.41,10.23-7.9,1.35.92-1.16,7.14-3.45,11.36a42.09,42.09,0,0,1-13.82,14.81"/><path class="cls-31" d="M577.62,444.32c-.79.34-1.59.72-2.41,1.13-.5.95-1,1.9-1.55,2.83-1,1.87-2.13,3.71-3.3,5.5a116,116,0,0,1-7.45,10.46c-2.68,3.35-5.54,6.57-8.5,9.74a65.63,65.63,0,0,0,9.68-8.73,75.86,75.86,0,0,0,8-10.39A76.88,76.88,0,0,0,577.62,444.32Z"/><path class="cls-31" d="M581.58,445.26c-1.09,1.79-2.06,3.66-3,5.54s-1.79,3.73-2.77,5.55-1.93,3.69-2.9,5.5A37.64,37.64,0,0,1,569.7,467a32.65,32.65,0,0,1-9.29,8,25.31,25.31,0,0,0,10.49-7,32.23,32.23,0,0,0,3.66-5.24c1.05-1.82,2-3.65,3-5.49,2-3.76,3.47-7.6,5.37-11.27.8-1.59,1.63-3.15,2.48-4.72-.49.16-1,.35-1.7.59C583,443,582.26,444.11,581.58,445.26Z"/><path class="cls-15" d="M550.12,507.79c-8.39-1-16.85-2.28-25.12-3.92-4.41-.87-8.85-1.84-13.22-2.9l-.5-.12-.1.5c-4.47,20.78-8.63,41.92-12.37,62.85-.87,4.86-1.71,9.69-2.52,14.4-9.09-17.49-16.52-33.16-22.08-46.6-2.21-5.32-3.62-8.57-6.45-15-8.44-19.31-10.94-23.64-13.13-27a105.77,105.77,0,0,0-12.13-15.05,113.9,113.9,0,0,0-18.8-16.33,121,121,0,0,0-46.44-18.53c-2-.34-3.59-.58-4.65-.72-9.29,3.6-15.26,5.06-19.07,5.72-1.25.22-5.39.95-10.88,2.41-1.52.41-3.05.88-4.68,1.43a77.19,77.19,0,0,0-12.55,5.36,79.58,79.58,0,0,0-14.69,10.45c-8.15,7.55-15.89,20.44-22.38,37.28-4.93,12.79-6.82,21.83-9.44,34.34-.35,1.68-.72,3.41-1.1,5.22-2.76,13-3.94,17.27-5.89,24.35-2.2,8-5.22,18.94-12.39,49.17-4.64,19.57-9.19,39.54-13.53,59.36l.49.11.49.1c0-.14.06-.29.1-.43l128.36-1.86,7.05-16.87q15-26.12,29.58-54.92,6.57-13,12.6-25.66l-.38.32c4.07,4.88,8.29,9.82,12.51,14.7,6.88,7.92,9,9.85,18.37,20.07,12.59,13.69,20.7,23,30.8,28.48,3.63,2,8.49,3.95,13.86,2.81a17.45,17.45,0,0,0,5.39-2.24c6.55-3.83,10.71-8.59,15.52-14.09l1.76-2c14.62-17.16,21.36-67,21.36-67C546.85,533.86,549,516.88,550.12,507.79Z"/><path class="cls-32" d="M262.79,646.33c7.61-20,9.62-37.06,11.64-54.11A269.43,269.43,0,0,0,276.17,553l-1.11,1c-1.1,4.58-2,7.79-3.13,12-2.2,8-5.22,18.94-12.39,49.17-4.64,19.57-9.19,39.54-13.53,59.36l.49.11.49.1c0-.14.06-.29.1-.43l7.45-.11c.21-1.31.42-2.46.6-3.41C257.19,659.73,260.26,653,262.79,646.33Z"/><path class="cls-20" d="M421.4,464l-1.7,1.44a33.19,33.19,0,0,1,3,6.55c1.33,4.05,3,9.09,1.16,13.87a11.54,11.54,0,0,1-4.45,5.54,10.21,10.21,0,0,1-6.52,1.35c-3.47-.22-10.56-1.78-19.17-9.68a65.91,65.91,0,0,1-8.05-9.18l-.37-.48a110.29,110.29,0,0,1-17.32-32.29l-2,.7,0,.09a112.81,112.81,0,0,0,17.78,33.19l.37.48a66.64,66.64,0,0,0,8.32,9.47c9,8.31,16.62,10,20.32,10.2.46,0,.89,0,1.31,0a11.14,11.14,0,0,0,6.32-1.69,13.88,13.88,0,0,0,5.37-6.71c2.18-5.74.27-11.56-1.12-15.81A34.93,34.93,0,0,0,421.4,464Z"/><path class="cls-20" d="M438.69,542.77v-.22a291.95,291.95,0,0,0-11.08-81.12q-1.86-1.41-3.91-2.83l-.06,0a287.71,287.71,0,0,1,12.05,83.76A286.15,286.15,0,0,1,406,607.87L407.8,609q2.15-4.17,4.28-8.39,6.44-12.71,12.37-25.17c.43.53.89,1.06,1.33,1.58q1.19-2.62,2.32-5.26A294.55,294.55,0,0,0,438.63,543Z"/><path class="cls-33" d="M442.5,474.93A124.91,124.91,0,0,0,425.64,460a291.66,291.66,0,0,1,8.28,37.59,289.82,289.82,0,0,1,3.27,44.95l-10.47,28.58a85.86,85.86,0,0,0,10.91-15.86,62.74,62.74,0,0,0,5.53-13.09,55,55,0,0,0,1.74-18.62c-.54-9.95-.43-24.77.31-45.7C444.19,476.73,443.27,475.74,442.5,474.93Z"/><path class="cls-30" d="M469.26,343.13c.69,2.72,1.58,6.53,2.4,11.12,1.62,9,2.44,13.53,2.19,19.64-.23,5.49-1.07,6.06-1.75,16.15-.19,2.75-.15,3-.44,7.63-.43,6.93-.65,10.39-1.09,13.75-.67,5.19-1,4.41-2.83,13.74-1.92,9.94-1.62,11.39-3.49,14.84a25,25,0,0,1-7,8.07,24.31,24.31,0,0,1-9.81,4.37,23.8,23.8,0,0,1-15.71-2.84,45.26,45.26,0,0,0-11.35,21.6,43.16,43.16,0,0,0-.78,5.64A6.55,6.55,0,0,1,413.7,483h-.07c-8.77.65-15.66-5.89-20.95-10.91a65.71,65.71,0,0,1-11.12-14.4,101.17,101.17,0,0,1-8.95-18.32,56,56,0,0,0,6.33-5.24,26.29,26.29,0,0,0,5.23-6.11,20,20,0,0,0,2.4-6.76,20.43,20.43,0,0,1-8.72-9.17c-4.07-8.8.25-17.29,1.31-19.2a24,24,0,0,1,14.18-11.12c-.49-2.53-4.45-25.09,10-39.93C418.36,326.45,447.33,325.27,469.26,343.13Z"/><path class="cls-34" d="M465.12,419.49c-1-1.16-3-3-7.86-4.36a35.63,35.63,0,0,0-19.85.22c-4.75,1.52-8.69,2.79-11.13,6.65-2.76,4.38-1.95,9.48-1.31,13.6a26.35,26.35,0,0,0,3.49,9.67,24.79,24.79,0,0,0,3.57,4.49,23.75,23.75,0,0,0,15.42,2.68,24.31,24.31,0,0,0,9.81-4.37,25,25,0,0,0,7-8.07c1.87-3.45,1.57-4.9,3.49-14.84l.15-.76A13.7,13.7,0,0,0,465.12,419.49Zm-9.82,18.87a13.61,13.61,0,0,1-3.27,4.91,8.31,8.31,0,0,1-4,2.4,8,8,0,0,1-5.67-1.09,10.06,10.06,0,0,1-4-4.87,13.56,13.56,0,0,1-1.2-6.55,13,13,0,0,0,9.71,4.26,13.1,13.1,0,0,0,10-5.57A18.77,18.77,0,0,1,455.3,438.36Z"/><path class="cls-35" d="M483,334.62a86.39,86.39,0,0,0-6.76,10.25,88.86,88.86,0,0,0-4.59,9.38,24.92,24.92,0,0,0-4.14-4.14c-2-1.59-5.17-3.55-11.13-5-5.63-1.39-10.52-1.31-20.07-1.09-7.06.16-10.48.61-14.18,1.75-6.25,1.91-8,4.15-8.51,4.8-2,2.65-2.3,5.82-2.62,8.94-.42,4.06.39,4.28-.22,7.64-.47,2.59-1.15,6.31-3.93,8.07-2.15,1.36-3.79.42-5,2-.89,1.13-.69,2.48-.45,5.44.48,5.83-.14,2.44.45,7.87.79,7.28,1.52,9.73,1.31,14.62-.21,4.67-1,5.13-1.31,5.24-1,.34-2.15-.95-6.55-5.68-3.83-4.11-5.78-6.17-7.42-6.54a8.08,8.08,0,0,0-7.63,2.62c-2.66,3.13-1.53,7.49-.88,10a19.77,19.77,0,0,0,7.2,10.48,18.73,18.73,0,0,1-8.07-4.37c-3.8-3.58-5-8.08-6.33-14.83-1.63-8.56-1.87-13-2.83-21-1.23-10.06-2.28-18.39-5-26-2.68-7.39-4-11.09-5.89-12.88a4.86,4.86,0,0,1-1.53-2.61c0-.18-.48-2.84,1.53-4.26a4.09,4.09,0,0,1,4.58,0,6.8,6.8,0,0,1-.55-5,6,6,0,0,1,3.6-4,5.88,5.88,0,0,1,6.11,1.74,9.79,9.79,0,0,1-.32-5.12,5,5,0,0,1,1.63-3.28c1.58-1.19,3.69-.62,4.37-.43a6.78,6.78,0,0,1,3.27,2.07,5,5,0,0,1,.44-4A4.78,4.78,0,0,1,385.7,315a4.86,4.86,0,0,1,4.26,2.73,7.11,7.11,0,0,1-.33-4.91c.23-.75.9-2.93,2.83-3.6s4.1.28,5.57,2.29a4.57,4.57,0,0,1,1.31-3.27,4.44,4.44,0,0,1,2.51-1.2,5.28,5.28,0,0,1,4.91,2.83,5.84,5.84,0,0,1,1.63-3.27,4.07,4.07,0,0,1,7.09,1.42,7.89,7.89,0,0,1,1.53-3.49,3.91,3.91,0,0,1,1.64-1.42,4.06,4.06,0,0,1,3.16.33c2.9,1.38,3.34,5.38,3.38,5.78a6.44,6.44,0,0,1,2-4.91c.2-.18,2.53-2.24,5-1.42a5.62,5.62,0,0,1,2.95,2.95,9.18,9.18,0,0,1,1.2,4.25,7.57,7.57,0,0,1,1.74-5,5.46,5.46,0,0,1,3.93-2.18,5.3,5.3,0,0,1,3.82,2,6.89,6.89,0,0,1,1.75,4.36,9.11,9.11,0,0,1,4.25-3.27,5.12,5.12,0,0,1,3.71-.33c2.15.84,2.77,3.65,3.05,4.91a10,10,0,0,1,.11,3.82,5.3,5.3,0,0,1,2.18-3.28,4.74,4.74,0,0,1,3.6-.76,5,5,0,0,1,3.5,4.58,3.68,3.68,0,0,1,2.29-1.52c2.08-.37,3.56,1.55,3.71,1.74a5.45,5.45,0,0,1,.87,3.49,8.17,8.17,0,0,1-.75,3.42,4.71,4.71,0,0,1,2.71-1.13,4.45,4.45,0,0,1,3.17,1c1.53,1.4,1.68,4.51-.22,7.2a3.18,3.18,0,0,1,2.4.22C483.49,330.09,484,332.36,483,334.62Z"/><path class="cls-36" d="M395.85,421.26a13.56,13.56,0,0,1-6.51.78,13.25,13.25,0,0,1-2.79-.68,18.42,18.42,0,0,1-.56,2.39c-.14.46-.29.9-.44,1.31.63.17,5,1.3,8.3-1.35A7.94,7.94,0,0,0,395.85,421.26Z"/><path class="cls-36" d="M412.39,438.84a72.37,72.37,0,0,1-9.6-10.55,41.65,41.65,0,0,0,2.77,8.87A40.29,40.29,0,0,0,413,448.51a37.07,37.07,0,0,0,13,8.72l.12-.21a45.4,45.4,0,0,1,5.68-7.42,37.84,37.84,0,0,1-7.93-2.69A44.45,44.45,0,0,1,412.39,438.84Z"/><path class="cls-37" d="M416,376.84c.08.21.5.25,5.67-.33s4.72-.61,5.78-.66c3.16-.13,5.52-.22,8.29.66a10.45,10.45,0,0,0,4.15.65c.6,0,2.24-.14,2.4-.76.21-.84-2.39-2.29-4.26-3A22.37,22.37,0,0,0,428,372a20.58,20.58,0,0,0-4.47.54C419.36,373.62,415.76,376.12,416,376.84Z"/><path class="cls-35" d="M534,996.36l-3.81-.56c-9.51-1.45-15.79-2.48-22.61-4.64a45.62,45.62,0,0,1-14.12-6.62c-3.33-2.42-8.92-6.47-10.56-13.38a18.21,18.21,0,0,1-.29-6.8l-1-.14a.62.62,0,0,1,0,.13l-38.72,4.23-.5,0a66.17,66.17,0,0,1,.25,9c-.14,3.34-.57,7-2.62,18.85l-.25,1.47c-.87,5-1.19,6.87-.94,8.49a8.15,8.15,0,0,0,.34,1.34c1.24,3.81,5.11,7.21,9.35,8.59,3.18,1,6.36.65,12.71-.11,1.95-.24,3.57-.56,3.57-.56,1.28-.25,2.33-.51,3.42-.79a60.15,60.15,0,0,1,6.12-1.27,76.87,76.87,0,0,1,17.35-.58,93.64,93.64,0,0,1,16.24,2.43,41.9,41.9,0,0,0,9.67,1.35H518c.48,0,1.09,0,1.79,0,4.77,0,14.15-.65,20.64-7.17,4.88-4.9,5.13-7.9,4.48-9.55C543.92,997.8,541,997.37,534,996.36Z"/><path class="cls-35" d="M735.7,992.06c-.8-2.37-3.33-3.57-10.84-5.13a103.43,103.43,0,0,0-15.14-2.06A45.58,45.58,0,0,1,698.43,983c-5.66-1.72-9.78-4.11-14.15-6.64A87.83,87.83,0,0,1,669.82,966a81.71,81.71,0,0,1-14.12-16.69l-.42.27h0l-.42.26v0L624.74,971l-.07-.07-.68.73a16.72,16.72,0,0,1,5,7.79c.43,1.53.43,2.54.42,5.88v2.86c0,6.16-.11,9.24.61,11.51,1.34,4.21,5.35,7.54,9.16,8.77,2.85.91,6.2.51,12.9-.3,2-.23,3.58-.56,3.58-.56,1.27-.24,2.32-.51,3.41-.78a59.74,59.74,0,0,1,6.12-1.28,76.05,76.05,0,0,1,17.34-.57,92.78,92.78,0,0,1,16.25,2.42,41.91,41.91,0,0,0,9.66,1.36h.34l1.78,0c4.77,0,14.16-.64,20.69-7.2C732.67,1000.13,737,995.82,735.7,992.06Z"/><path class="cls-38" d="M543.72,998.7a23.92,23.92,0,0,1-3.34,4c-6.49,6.52-15.87,7.16-20.64,7.16l-1.79,0h-.33a41.9,41.9,0,0,1-9.67-1.35,93.64,93.64,0,0,0-16.24-2.43,76.27,76.27,0,0,0-17.35.58,60.15,60.15,0,0,0-6.12,1.27c-1.09.28-2.14.54-3.42.79,0,0-1.69.34-3.57.56-4.6.53-13.4,1.56-18.79-3.51a13.28,13.28,0,0,1-3.19-4.79,17.49,17.49,0,0,0-.42,5.46,10.75,10.75,0,0,0,.34,1.34,14.55,14.55,0,0,0,6.74,7.55c4.25,2.24,8.63,1.72,15.32.93,1.92-.23,3.57-.56,3.57-.56,1.28-.25,2.33-.51,3.42-.79a60.15,60.15,0,0,1,6.12-1.27,76.87,76.87,0,0,1,17.35-.58,93.64,93.64,0,0,1,16.24,2.43,41.9,41.9,0,0,0,9.67,1.35H518c.48,0,1.09,0,1.79,0,4.77,0,14.15-.65,20.64-7.17,4.88-4.9,5.13-7.9,4.48-9.55A3.26,3.26,0,0,0,543.72,998.7Z"/><path class="cls-38" d="M735.7,992.06a4.09,4.09,0,0,0-1-1.65,23,23,0,0,1-3.4,4.16c-6.53,6.55-15.92,7.2-20.69,7.2-.7,0-1.31,0-1.78,0h-.34a41.91,41.91,0,0,1-9.66-1.36A93.75,93.75,0,0,0,682.54,998a76.77,76.77,0,0,0-17.34.58,59.74,59.74,0,0,0-6.12,1.28c-1.09.27-2.14.53-3.41.78,0,0-1.63.33-3.58.56-6.2.74-9.3,1.11-12.57.09-.86-.27-7.36-2.43-9.49-8.56a12.59,12.59,0,0,1-.56-5.58h-.05v1c0,6.38.05,9.57.61,11.51,1.24,4.27,5.44,7.57,9.16,8.77,2.85.91,6.2.51,12.9-.3,2-.23,3.58-.56,3.58-.56,1.27-.24,2.32-.51,3.41-.78a59.74,59.74,0,0,1,6.12-1.28,76.05,76.05,0,0,1,17.34-.57,92.78,92.78,0,0,1,16.25,2.42,41.91,41.91,0,0,0,9.66,1.36h.34l1.78,0c4.77,0,14.16-.64,20.69-7.2C732.67,1000.13,737,995.82,735.7,992.06Z"/><path class="cls-37" d="M470,374.11a11.85,11.85,0,0,0-3.38.11,20.49,20.49,0,0,0-4.07.8,5.6,5.6,0,0,0-2.59,1.27c-.53.54-1.31,1.66-1,2.18.5.78,3-.67,7.75-1,2.73-.18,4.06.17,5.12.76a7.12,7.12,0,0,1,1.41,1.07c.13-.86.25-1.68.35-2.58A6.26,6.26,0,0,0,470,374.11Z"/><path class="cls-35" d="M427.16,384.91a6.73,6.73,0,0,0-1.1,2.94,5.71,5.71,0,0,0,1,4.26,5.32,5.32,0,0,0,5,1.85,5.77,5.77,0,0,0,4-3c1.43-3.08-.88-6-1-6.11a7.08,7.08,0,0,0-5.24-2.29A8.15,8.15,0,0,0,425,383.6a8.43,8.43,0,0,0-3.71,5.24,7.6,7.6,0,0,1,3.3-3.22A7.24,7.24,0,0,1,427.16,384.91Z"/><path class="cls-35" d="M460.36,386.13a7.43,7.43,0,0,0-1.12,2.88,6.45,6.45,0,0,0,.58,4.3,4.26,4.26,0,0,0,4.19,2.12,5,5,0,0,0,3.66-2.83c1.42-3-.38-6-.46-6.15a5.73,5.73,0,0,0-4.35-2.57,6.27,6.27,0,0,0-4.29.82,8.68,8.68,0,0,0-3.51,5,7.16,7.16,0,0,1,3-3A5.58,5.58,0,0,1,460.36,386.13Z"/><path class="cls-39" d="M453.34,384.15a19.38,19.38,0,0,0-.29,11.17,15.64,15.64,0,0,0,2.27,4.85,14.87,14.87,0,0,0,1.71,2l1.05,1a5.29,5.29,0,0,1,1.19,1.56,4.33,4.33,0,0,1-.48,4.23,9.16,9.16,0,0,1-2.51,2.37,13.46,13.46,0,0,1-2.87,1.51,10.71,10.71,0,0,1-3.17.68,15,15,0,0,1-11.3-3.89,18.19,18.19,0,0,0,11,1.57,12,12,0,0,0,2.48-.79,11.45,11.45,0,0,0,2.21-1.39,6.87,6.87,0,0,0,1.68-1.69,1.4,1.4,0,0,0,.25-1.33,10.48,10.48,0,0,0-1.62-1.8,15.26,15.26,0,0,1-2-2.51,15.72,15.72,0,0,1-2.18-5.92,16.61,16.61,0,0,1,.14-6.17A15.38,15.38,0,0,1,453.34,384.15Z"/><path class="cls-40" d="M510.47,807.18c14.14-17.81,9.86-42.48-4.77-52.78-15.6-11-42.35-5.19-53.06,16.74v-.07a.31.31,0,0,0,0-.08l-1-.25c-1.71,6.7-3.28,13.55-4.68,20.36a460.44,460.44,0,0,0-8.45,65.23c-2.86,42.32-.94,84.3,1.17,112.07l0,.42.42,0c3.52.34,7.07.51,10.61.51q3.46,0,6.92-.22a110.5,110.5,0,0,0,24.55-4.38l.35-.1v-.37c.24-13,1.12-26.21,2.61-39.22,2.76-24,7.1-42.44,13.67-70.35,3.69-15.69,7.74-31.64,12-47.42Z"/><path class="cls-41" d="M510.47,807.18c14.14-17.81,9.86-42.48-4.77-52.78-15.6-11-42.35-5.19-53.06,16.74v-.07a.31.31,0,0,0,0-.08l-1-.25c-1.71,6.7-3.28,13.55-4.68,20.36a460.44,460.44,0,0,0-8.45,65.23c-2.86,42.32-.94,84.3,1.17,112.07l0,.42.42,0c3.52.34,7.07.51,10.61.51q3.46,0,6.92-.22a110.5,110.5,0,0,0,24.55-4.38l.35-.1v-.37c.24-13,1.12-26.21,2.61-39.22,2.76-24,7.1-42.44,13.67-70.35,3.69-15.69,7.74-31.64,12-47.42Z"/><path class="cls-42" d="M461.75,801.5c-4.23,27.34-7.46,56.17-9.62,85.7-2.29,31.37-2,45.62-1.45,55.42.51,8.92,1.42,17.88,2.66,26.71,1,0,2-.06,3-.11-1.26-8.85-2.17-17.83-2.69-26.77-.56-9.71-.83-23.84,1.45-55,2.16-29.44,5.38-58.19,9.59-85.45,1.84-11.93,3.91-24,6.15-35.79l-2.95-.56C465.67,777.46,463.59,789.54,461.75,801.5Z"/><path class="cls-43" d="M429.81,424.65a61.8,61.8,0,0,0,9.67-3c2.64-1.05,3.63-1.67,5.89-2.07a15,15,0,0,1,7.86.33c1.16.41,1.39.7,5.49,2.51l2.18.94a20.38,20.38,0,0,1-5,7.24c-1.72,1.57-4.26,3.88-8.19,4.36a14.12,14.12,0,0,1-8.72-2.07,27,27,0,0,1-5.17-4.18C432.06,427.13,430.73,425.69,429.81,424.65Z"/><path class="cls-24" d="M438.07,425.14a58.46,58.46,0,0,1,17.3-.78,12.31,12.31,0,0,1-3.18,2.13C445.92,429.38,439.24,425.79,438.07,425.14Z"/><path class="cls-43" d="M383.52,405.53a6.6,6.6,0,0,1,4.19-.15,8.39,8.39,0,0,1,5.85,6,6.71,6.71,0,0,1-.22,4.18c-.7-1.23-1.3-2.3-2-3.26a18.25,18.25,0,0,0-2.09-2.61,17.31,17.31,0,0,0-2.54-2.16A36.83,36.83,0,0,0,383.52,405.53Z"/><path class="cls-44" d="M447.63,429.1a18.77,18.77,0,0,1-3.84-.44,43.34,43.34,0,0,1-9.4-3.82l2.93-.42a24.21,24.21,0,0,0,6.8,2.27c2.3.39,3.95.67,6,0a9.32,9.32,0,0,0,4.3-3l2.62.12c-2.75,2.8-5.23,4.43-6.31,4.77A8.15,8.15,0,0,1,447.63,429.1Z"/><path class="cls-44" d="M427.74,424.33c4.23-.15,7.23-.4,9.23-.61,1.36-.14,2.72-.21,4.07-.42a39,39,0,0,1,4.4-.43c1.46-.06,2.95-.06,4.42,0s2.86.19,4.21.24a71.38,71.38,0,0,0,8.43-.35,26.69,26.69,0,0,1-8.35,2c-1.51.11-3,.09-4.37.1s-2.77,0-4.16.11-2.68.14-4.12.29c0,0-2.27.12-4.48.1A49.37,49.37,0,0,1,427.74,424.33Z"/><path class="cls-15" d="M501.31,665.4c-12.46-7.89-25.19-15.81-37.82-23.57-18.39-11.29-37.16-22.57-55.77-33.51-5.12-15.71-10.06-31.55-14.7-47.08-3-10-6.32-20-9.55-29.67-3.16-9.51-6.44-19.34-9.36-29.1-.63-2.08-6.47-20.88-18.7-36.81-3.16-4.12-7.28-8.63-13.91-10.93a28.08,28.08,0,0,0-16-.51l.12.49-8.76,97.07-.45.22c8.42,17.08,17.13,34.31,25.9,51.21,7.61,14.68,15.44,29.46,23.28,43.94l.07.13.12.07a420.3,420.3,0,0,0,89,37.93c12.6,3.72,24.73,6.65,36.26,9l.43.1Q496.4,679.85,501.31,665.4Z"/><polygon class="cls-20" points="408.91 610.57 383.19 628.95 405.69 606.74 408.91 610.57"/><path class="cls-20" d="M496.69,578.13c.5,3.39.93,6.78,1.4,10.17l1.24,10.19a97,97,0,0,1,1.1,10.19,57,57,0,0,1-.54,10.33l-.3,0a57.85,57.85,0,0,1-2.15-10.11c-.48-3.39-.36-6.83-.5-10.24l-.35-10.26c-.07-3.42-.17-6.84-.2-10.26Z"/><path class="cls-33" d="M550,508.88a43.27,43.27,0,0,0-5.91,6.39,44.56,44.56,0,0,0-6.69,13.09c-4.66,14.16-7.61,30.65-8.44,35.35-2.22,12.61-4.51,25.75-9.16,39-2.68,7.64-4.68,11.13-7.71,14.11s-5.68,4-10.33,9.16c-3,3.39-4.3,5.63-4.94,8.15a15.85,15.85,0,0,0-.14,7c0,.17,0,.34,0,.51a14.92,14.92,0,0,0,3.13-.33,17.45,17.45,0,0,0,5.39-2.24c6.55-3.83,10.71-8.59,15.52-14.09l1.76-2c14.56-17.09,21.36-67,21.36-67C546.74,534.82,548.84,518.29,550,508.88Z"/><path class="cls-45" d="M318.28,552.8c1.62,12.67,3.64,23,5.24,30.33,3.7,16.9,9.44,37,20.51,57.6,4.19,7.79,8.56,14,15.93,19a45.71,45.71,0,0,0,17.81,7.09l4.28-10.89-16.23-8.56Q342.06,600.07,318.28,552.8Z"/><path class="cls-33" d="M501.05,665.82l-89.58-54.71a97.3,97.3,0,0,0,12,19.36c9.56,12,19.48,18.6,28.14,24.22a177.87,177.87,0,0,0,46,21.16l3.42-10"/><path class="cls-30" d="M497,677.45q6.86,1.34,14,2.91,6.8,1.51,13.29,3.14a16.19,16.19,0,0,1,9.76,7c.68,1.08,1.36,2.22,2,3.41a78.25,78.25,0,0,1,4.37,9.14,16.25,16.25,0,0,1,1.17,5.54q.39,11.76.79,23.51l-17.17-27.64-33.72-10.58"/><path class="cls-40" d="M656.54,948.34c-8.92-16.15-17.82-32.78-26.47-49.44-14.35-27.65-24-47.67-32.49-65.33-8.58-17.84-16.69-34.69-28-56C556.42,752.87,542,728,526.78,703.66l-.1-.16-.19,0c-29-8.36-58.52-15.6-87.6-21.54-19.38-4-39.31-7.48-57.63-10.19-8.2-1.21-10.67-1.48-15.14-2-4.8-.52-12.05-1.3-31.7-3.86l-.85-.11c-11.27-1.47-21.94-2.85-36.74-2.8a123.49,123.49,0,0,0-19.28,1.17,104.3,104.3,0,0,0-31.27,9.94l-.24.12,0,.26a172,172,0,0,0-1.17,33c1,15.7,1.73,28.1,10,39.53a51.27,51.27,0,0,0,14.4,13.23c20.45,13,45.29,12.76,75.87,12.58l10.9,0c10.6.32,25.81.5,48.14,0,13.85,0,20.3-.06,36.43-.78,15.49-.7,31.24-1.57,46.83-2.6,11.26,19.3,22.95,38.78,34.78,58,13,21,25.18,40.81,39.84,62.53,18.78,27.79,39.34,55.41,61.12,82.07a74.81,74.81,0,0,0,33.35-23l.23-.26Z"/><path class="cls-46" d="M438.79,682.4c-27.51-5.62-48.78-8.88-57.6-10.18l-3.83-.56c4.53,1.85,9.37,3.92,14.47,6.25,21.5,9.81,25.68,14.14,41.67,19.39,9.38,3.09,25.22,8.14,46,7.19a113.83,113.83,0,0,0,29.64-5.38C482.1,691.79,458.36,686.39,438.79,682.4Z"/><path class="cls-41" d="M636.44,965.9C610,930,591,903.71,589,900.63c-1.24-1.89-2.31-3.55-2.31-3.55-1-1.51-1.85-2.88-3.14-4.9C580.86,888,576.37,881,565.43,864c-3.57-5.55-6.57-10.19-9.1-14.11-12.45-19.28-13.47-20.85-15.83-25.6l-.77-1.56c-3-6.12-11.08-22.39-17.31-33.15a88,88,0,0,0-7.4-11.52c-1.33-1.69-2.38-2.85-3.22-3.79a16.87,16.87,0,0,1-3.29-4.65,22.67,22.67,0,0,1-1.55-4.48c-.47-1.84-.88-3.43-2.68-4.8a8.77,8.77,0,0,0-5.66-1.55c-1.33,0-1.9-.07-2.17-.45-.44-.62,0-1.92.36-3.18.56-1.79,1.26-4-.08-5.85-1.7-2.35-5.32-2-6.87-1.93l-.15,0a12.43,12.43,0,0,1-5.6-.68,101.39,101.39,0,0,0-16.31-3.25,320.66,320.66,0,0,0-33.62-2.63c-15.1-.38-24.31-.08-35,.26-7.28.24-15.53.5-27,.61-1.62,0-22.63-1-60.71-2.89l-.29,0c-6.4-.31-16.07-.79-27.08-6-5.63-2.65-16.12-7.58-21.09-18.46-2.91-6.39-2.84-12-2.48-20.55a92.36,92.36,0,0,1,5.19-26.63c-1.22.33-2.39.68-3.54,1a95.25,95.25,0,0,0-4.65,25.46c-.33,7.81-.61,14.56,2.75,21.92,5.43,11.89,16.57,17.13,22.55,19.94,11.54,5.43,22,5.94,28.2,6.25h.29c40.27,2,58.84,2.9,60.84,2.9h.05c11.55-.11,19.82-.37,27.12-.61,11.05-.36,19.78-.64,34.79-.26a320.15,320.15,0,0,1,33.29,2.6,97.57,97.57,0,0,1,15.88,3.16,15.2,15.2,0,0,0,6.68.79h.16c.95-.08,3.48-.29,4.19.69.46.62.06,1.87-.35,3.19-.56,1.77-1.25,4,.06,5.82,1.18,1.66,3.06,1.69,4.57,1.7a6.06,6.06,0,0,1,3.89,1c.93.71,1.14,1.44,1.58,3.15a26.27,26.27,0,0,0,1.75,5,19.59,19.59,0,0,0,3.77,5.36c.86,1,1.83,2,3.1,3.65a86.77,86.77,0,0,1,7.15,11.17C526,801.75,534,818,537,824.05l.77,1.56c2.44,4.9,3.47,6.49,16,25.9l9.1,14.1c10.94,17,15.42,24,18.1,28.19,1.29,2,2.16,3.38,3.14,4.89l2.33,3.59c2,3.1,20.65,29.5,46.46,65.58Z"/><path class="cls-47" d="M569.12,777.82C563.35,767,555.58,752.76,545.79,736c.28,2.53.55,5.3.81,8.27.85,9.78.72,12.71,1.89,17.67,1.57,6.64,4.18,11.49,9.47,19.87,9,14.29,12.08,17.08,18.92,27.45A346.35,346.35,0,0,1,596.13,843c4.51,8.9,7.35,15.35,14.19,23,1.74,1.95,3.46,3.67,5.11,5.19C596.94,834.25,587.48,812.34,569.12,777.82Z"/><path class="cls-48" d="M345.09,772.79l10.9,0c2,.06,4.21.12,6.58.16h0a178.68,178.68,0,0,0-30.25-12.25c-13.87-4.19-16.47-3.13-27.64-6.69-14-4.46-29.41-9.37-39.85-23.27-9.75-13-10.77-27.94-11.35-36.36a91.73,91.73,0,0,1,1.66-23.63c-3.32,1.3-6.22,2.63-8.64,3.85l-.53.25a172.73,172.73,0,0,0-1.13,32.65c1,15.7,1.73,28.1,10,39.53a51.27,51.27,0,0,0,14.4,13.23C289.67,773.26,314.51,773,345.09,772.79Z"/><path class="cls-20" d="M492.57,694.25l-2.9-.74q4.77-13.53,9.56-27.06c-12.13-7.67-24.5-15.37-36.79-22.92C444,632.21,425.2,620.91,406.54,610l-.49-.29-.17-.54c-5.15-15.79-10.12-31.71-14.78-47.31-3-9.93-6.3-19.93-9.52-29.61-2.53-7.59-5.14-15.43-7.57-23.2,6.83,16.09,13.56,33.42,20,52,5.59,16.18,10.41,31.79,14.58,46.7,18.52,10.89,37.17,22.1,55.46,33.33,12.64,7.76,25.37,15.69,37.84,23.57l1,.64Z"/></svg>